<svg xmlns="http://www.w3.org/2000/svg" viewBox="0 0 505.75 452.31"><defs><style>.cls-1{fill:#5a9191;}.cls-2{fill:#81d0d3;}.cls-3{fill:#76bdbc;}.cls-4{fill:#d6562b;}.cls-5{fill:#231f20;fill-opacity:0.3;}.cls-6{fill:#895881;}.cls-7{fill:#c6a9b5;}.cls-8{fill:#fff200;}.cls-9{fill:#f9a01b;}.cls-10{fill:#fff;}.cls-11{fill:#b2d235;}.cls-12{fill:#f7f2da;}.cls-13{fill:#df8b26;}.cls-14{fill:#e4d41d;}.cls-15{fill:#a4bf3a;}.cls-16{opacity:0.5;}</style></defs><title>SDGJR</title><g id="Layer_2" data-name="Layer 2"><polygon class="cls-1" points="94.72 8.95 104.48 0 393.62 2.25 452.94 297.12 463.6 350.83 470.92 371.18 245.89 452.31 21.62 371.18 22.96 350.51 29.28 348.21 39.04 293.68 94.72 8.95"/><polygon class="cls-2" points="102.18 15.83 113.47 7.61 386.73 9.14 444.13 293.87 48.22 293.11 102.18 15.83"/><polygon class="cls-3" points="387.78 15.83 386.73 9.14 113.47 7.61 102.18 15.83 48.22 293.11 53.67 293.11 106.2 18.7 114.81 12.1 387.78 15.83"/><path class="cls-4" d="M212.75,327.7l139.78.29s4.59-15.21,4.88-25.26-8.32-31.48-8.32-31.48l-120.55-9.57s-13.49,12.06-16.65,21-5.17,18.66-4.31,26.41S212.75,327.7,212.75,327.7Z" transform="translate(-3.5 -34.02)"/><polygon class="cls-5" points="85.53 58.03 52.24 225.37 129.93 227.66 131.08 224.98 133.37 227.66 448.06 250.63 409.59 82.71 85.53 58.03"/><polygon class="cls-6" points="2.3 38.8 88.98 38.8 84.96 60.61 366.07 82.27 369.31 87.21 372.95 82.8 424.23 87.02 427.1 112.28 497.71 111.13 502.88 117.44 469.01 186.9 505.75 259.81 446.62 264.98 442.6 247.18 134.91 223.64 130.89 217.9 128.02 223.07 42.48 219.05 53.96 187.48 0 185.76 37.89 108.26 16.38 66.28 19.8 63.19 14.06 61.76 2.3 38.8"/><polygon class="cls-7" points="28.13 74.96 70.61 73.24 66.59 123.18 52.81 180.59 9.19 181.16 45.35 111.7 28.13 74.96"/><polygon class="cls-7" points="82.67 106.53 57.41 211.01 125.72 216.75 132.03 212.16 136.05 217.33 445.47 239.14 431.5 188.44 423.47 136.96 82.67 106.53"/><polygon class="cls-7" points="475.32 149.02 479.34 154.76 461.55 187.48 494.84 254.64 454.08 257.9 452.94 247.18 458.68 243.16 440.11 188.44 434.18 148.44 475.32 149.02"/><polygon class="cls-8" points="31.57 355.87 30.81 368.12 140.26 406.39 351.52 404.86 462.5 368.88 457.91 355.1 31.57 355.87"/><polygon class="cls-9" points="45.08 300.88 38.19 348.25 454.85 346.69 442.6 301.52 45.08 300.88"/><path class="cls-5" d="M199.26,278.19l3.73.29,3,4.31s13-.91,16.31,1.1,6.24,6.83,6.24,6.83l-3.44.14a8.62,8.62,0,0,0-4.61-4.49c-3.25-1.15-15.93,2.44-15.93,2.44l-2.87-4-2.58,2.73s-15.28-2.21-17.65-1.15-4.43,6-4.43,6l-2.44-.43s2.89-7.34,6-8.87,15.93.29,15.93.29Z" transform="translate(-3.5 -34.02)"/><path class="cls-5" d="M260.25,295.12l5.45-.72,3.73,6.31,9.08-.23c5.09-.13,10.67-.51,15.65,1.17,6.3,2.12,9,7.3,10.88,13.3l-4.45-.57a44.46,44.46,0,0,0-4.33-5.36c-2.12-1.69-4.79-2.26-7.5-2.72-3.2-.55-6.06.42-9.19.88-3.82.57-7.47,1.58-11.29,2.15l-4.59-6.6-5,5.6L247,307.09c-3.51-.37-7.78-1.33-11.4-.63-4.22.81-8,4-9.17,7l-4.22-.26a34.67,34.67,0,0,1,8.23-9.38c3.64-1.53,7.47-2.9,15.55-2.59l9.94.38Z" transform="translate(-3.5 -34.02)"/><path class="cls-10" d="M199.26,275.89l3.73.29,3,4.31s13-.91,16.31,1.1,6.24,6.83,6.24,6.83l-3.44.14a8.62,8.62,0,0,0-4.61-4.49c-3.25-1.15-15.93,2.44-15.93,2.44l-2.87-4-2.58,2.73s-15.28-2.21-17.65-1.15-4.43,6-4.43,6l-2.44-.43s2.89-7.34,6-8.87,15.93.29,15.93.29Z" transform="translate(-3.5 -34.02)"/><path class="cls-10" d="M260.25,292.83l5.45-.72,3.73,6.31,9.08-.23c5.09-.13,10.67-.51,15.65,1.17,6.3,2.12,9,7.3,10.88,13.3l-4.45-.57a44.46,44.46,0,0,0-4.33-5.36c-2.12-1.69-4.79-2.26-7.5-2.72-3.2-.55-6.06.42-9.19.88-3.82.57-7.47,1.58-11.29,2.15l-4.59-6.6-5,5.6L247,304.8c-3.51-.37-7.78-1.33-11.4-.63-4.22.81-8,4-9.17,7l-4.22-.26a34.67,34.67,0,0,1,8.23-9.38c3.64-1.53,7.47-2.9,15.55-2.59l9.94.38Z" transform="translate(-3.5 -34.02)"/><polygon class="cls-7" points="150.12 80.7 148.11 100.8 152.99 103.09 156.15 80.13 150.12 80.7"/><path class="cls-7" d="M106.09,110.44a8.24,8.24,0,0,1,3.5-.41,5.07,5.07,0,0,1,2.9,1.08,5.72,5.72,0,0,1,1.28,1.74,13.77,13.77,0,0,1-2.54,15.77,6.27,6.27,0,0,1-3.46,1.92c-2.51.31-4.73-1.76-5.89-4C99.18,121.27,100.32,112.5,106.09,110.44Zm-.61,4.75c-1.33,1.81-1.37,5.72-1.2,7.28a4.39,4.39,0,0,0,1.35,3.13,3,3,0,0,0,3.4,0,5.17,5.17,0,0,0,2-3,8.21,8.21,0,0,0-.55-5.87,4.51,4.51,0,0,0-2.05-2.18A2.16,2.16,0,0,0,105.48,115.19Z" transform="translate(-3.5 -34.02)"/><path class="cls-7" d="M203.11,124.75a3.38,3.38,0,0,1,2-.69,3.45,3.45,0,0,1,2.74,1.22,5.22,5.22,0,0,1,.94,3.72,8.1,8.1,0,0,1-3.22,6.17c-.86.59-2.12.92-2.88.21a2.54,2.54,0,0,1-.58-1C201.19,132,200.67,126.65,203.11,124.75Zm-3.14-3c-2.34,2.78-3.14,7-2.7,10.63A8.59,8.59,0,0,0,199.9,138c2.81,2.37,7.41,1.44,9.9-1.26s3.21-6.62,3-10.29a9.46,9.46,0,0,0-1.26-4.82,6.67,6.67,0,0,0-6.15-2.75A8,8,0,0,0,200,121.76Z" transform="translate(-3.5 -34.02)"/><polygon class="cls-7" points="252.87 89.03 258.04 90.17 256.03 109.12 251.73 109.12 252.87 89.03"/><path class="cls-7" d="M306.65,133.28a2.09,2.09,0,0,1,2.81-.14,5,5,0,0,1,1.79,3.67,7.14,7.14,0,0,1-.49,4.08,3.54,3.54,0,0,1-3.33,2.06c-1.73-.18-2.91-2-3-3.76C304.4,137.79,305.17,134.62,306.65,133.28Zm-6,1a13.42,13.42,0,0,0-.37,7.66c1.12,3.43,4.56,6.16,8.15,5.83,3.31-.3,6.06-3.1,6.93-6.31a13.58,13.58,0,0,0-1.42-9.64c-1.13-2.19-3-4.32-5.41-4.57C304.67,126.81,301.94,130.32,300.69,134.25Z" transform="translate(-3.5 -34.02)"/><polygon class="cls-7" points="348.74 97.92 353.62 98.21 352.47 118.3 347.02 118.02 348.74 97.92"/><path class="cls-7" d="M393.66,137.28a6.13,6.13,0,0,1,4.91-1.33c3,.47,4.92,3.55,5.78,6.49a14.37,14.37,0,0,1,.36,7.76,8.3,8.3,0,0,1-4.95,5.73c-3.56,1.26-7.75-.89-9.43-4.28C388.43,147.79,389.79,140.37,393.66,137.28Zm.29,10.32c.19,1.53,1,3.42,2.41,4.13,5.11,2.52,5.63-6,4.17-8.81a3.18,3.18,0,0,0-1.49-1.56C396.14,140.16,393.55,144.48,393.95,147.6Z" transform="translate(-3.5 -34.02)"/><polygon class="cls-11" points="161.94 410.79 162.28 417.57 246.66 445.42 340.59 411.47 161.94 410.79"/><path class="cls-6" d="M124.69,161.58c0-.4-6.59-3.44-7.24-3.66-7-2.31-15-1.31-19.92,4.67-5.39,6.58-3.64,16.36,3.39,21.2,3.18,2.19,8.57,2.85,10.85,6.44,1.6,2.51.56,5.16-2,6.49-3.12,1.65-6,.44-9-1-2.57-1.22-5.15-2.42-7.72-3.63l-1,9.59c0,.33,4.74,2.47,5.26,2.74A26.84,26.84,0,0,0,116.62,206c5.58-1.59,6.62-8,7.18-13.06a12.36,12.36,0,0,0-.41-3.8c-1.3-6-3.57-6.6-8.52-9.56a40.83,40.83,0,0,1-6.62-4.27,7.09,7.09,0,0,1-2.58-5.35c.23-3.81,4.93-5,7.48-4.7,1.55.21,6.89,3,10.33,5.45C123.48,170.69,124.63,162,124.69,161.58Z" transform="translate(-3.5 -34.02)"/><path class="cls-6" d="M133.24,158.35l11.45,2.86c.29.07-2.17,14.45-2.33,15.56-.71,4.63-1.93,9.53-1.18,14.22.64,4,5.58,12,9.77,6.17,3.8-5.25,4.41-14.3,5.19-20.51.12-.94,1.51-14.29,1.79-14.29h10.33c-.29,5.31-.62,14-.8,17.27-.86,15.55-4.47,31.17-23.49,29.72-9.41-.72-14.37-11.74-13.6-20Z" transform="translate(-3.5 -34.02)"/><polygon class="cls-6" points="169.16 178.68 172.79 128.35 182.55 128.35 193.46 153.61 196.9 131.22 207.81 132.37 203.6 181.55 190.59 180.59 181.4 152.46 179.68 179.44 169.16 178.68"/><path class="cls-6" d="M249.18,208.65l.06,7.76a.68.68,0,0,1-.66.85c-5.17,1.11-10.55,1.71-15.72.63-8.34-1.74-15.27-8.73-15.95-17.41-.51-6.54-1-13.44,1.93-19.33,3.32-6.77,8.19-9.69,15.44-11.76,5.83-1.66,13.49.25,18.94,2.15L252,180.83c-5.39-2.94-19.36-5.59-23,1.47-1.73,3.37-1.94,8.5-2,12.22C226.66,205,239.89,211.63,249.18,208.65Z" transform="translate(-3.5 -34.02)"/><path class="cls-6" d="M319.23,176.15l10.33,1.15,10.33,49.94H329.57l-2.87-14.93-9.76-.57-5.74,14.35-11.48-2.3Zm-.57,25.26,6.31,2.3-1.72-14.35Z" transform="translate(-3.5 -34.02)"/><path class="cls-6" d="M264.36,177.72a20.92,20.92,0,0,1,7.42-4,21.87,21.87,0,0,1,17.74,2.41c13.07,8.25,12.86,27.26,3.82,38.43a21.86,21.86,0,0,1-13.81,8.24c-16.28,2.27-26.58-14.69-24-29.2A27.27,27.27,0,0,1,264.36,177.72Zm12,34.42a7.77,7.77,0,0,0,6.8-1.12c3.05-2.29,4.32-6.52,4.53-10.17A20.14,20.14,0,0,0,282,186c-2-2-5.07-3.15-7.74-2.23-2.41.83-4,3.12-5.24,5.34a23.89,23.89,0,0,0-3.5,9.66c-.39,4.63,1.82,8.37,5.58,10.91A17.2,17.2,0,0,0,276.34,212.14Z" transform="translate(-3.5 -34.02)"/><path class="cls-6" d="M376.86,182.9l-.46,9.5a36.9,36.9,0,0,0-9.66-3.47c-3.11-.34-6.16-.37-8.23,2.59a4.07,4.07,0,0,0,.26,4.48c2.3,3.43,7,4.72,10.38,6.7,7.92,4.62,10.9,14.5,5.3,22.23-3.75,5.18-10,4.29-15.64,3.54-1.31-.17-12.71-2.32-12.65-3.48,0,0,.63-8.42.63-8.5a59.35,59.35,0,0,0,8,2.58c3.35.85,4.49,1.22,7.89.43a9.32,9.32,0,0,0,2.72-1.39c2-1.35,1.69-3.46.52-5.26a8.63,8.63,0,0,0-2.83-2.52c-2.66-1.64-5.63-2.72-8.41-4.16-6.42-3.32-9.56-8.87-7.83-16.1,1.4-5.87,4.31-10.59,10.67-11.67a21.41,21.41,0,0,1,10.05.94C368.49,179.63,376.88,182.47,376.86,182.9Z" transform="translate(-3.5 -34.02)"/><polygon class="cls-6" points="383.52 149.63 383.14 159.81 394.57 159.81 393.82 199.57 404.7 198.83 406.64 159.57 417.02 160.01 418.04 149.59 383.52 149.63"/><path class="cls-6" d="M85,238.53l2.3-21.23c0-.06,6.82.35,7.37.41,4.66.55,9.32,4.25,9.47,9.18.22,7.4-3,10.52-9.93,11.63C93.54,238.64,84.89,239.76,85,238.53Zm10.45-4a5.81,5.81,0,0,0,3.65-5c.4-5.32-3.32-6.21-7.4-7.38l-1,12.63A30.79,30.79,0,0,0,95.47,234.5Z" transform="translate(-3.5 -34.02)"/><polygon class="cls-6" points="107.54 184.8 105.25 202.59 106.49 206.42 119.21 207.95 120.17 203.55 110.79 202.79 111.18 197.81 119.41 198.77 120.55 193.98 111.56 193.03 111.56 189.77 120.94 190.16 122.08 185.95 107.54 184.8"/><polygon class="cls-6" points="126.1 186.71 131.27 186.71 134.91 201.25 139.88 188.05 144.66 188.24 135.67 209.1 131.08 208.34 126.1 186.71"/><polygon class="cls-6" points="147.72 188.44 146.19 206.61 145.81 209.87 161.12 211.59 161.31 207.57 151.17 205.66 151.94 201.45 160.93 201.83 160.74 198 152.89 197.05 152.89 192.45 162.27 193.6 162.84 190.35 147.72 188.44"/><polygon class="cls-6" points="167.05 189.97 171.84 190.92 170.5 207.19 179.87 208.72 179.49 212.74 168.01 211.4 165.33 208.91 167.05 189.97"/><path class="cls-6" d="M190.12,229.61c2.33-2.14,4.56-4,7.94-3.14,5.16,1.37,10.14,3.22,10.89,9.29.34,2.77.1,7-1.85,9.13a9.94,9.94,0,0,1-2.81,1.93c-4.11,2.18-9.51,3.16-13.51-.08a4.75,4.75,0,0,1-.86-1c-1.51-2.17-3-4.46-3.43-7.07C185.87,234.76,187.62,231.92,190.12,229.61Zm2.69,3.25a6.41,6.41,0,0,0-1.8,3c-1.17,4.34,2.68,9.65,7.25,8.55a7.79,7.79,0,0,0,5.92-6c.7-4.29-2.72-6.4-6.33-7.1A5.75,5.75,0,0,0,192.81,232.86Z" transform="translate(-3.5 -34.02)"/><path class="cls-6" d="M225.37,230.19c2.17,1,4,3.34,4,4.22.43,5.74-5.89,7.55-10.81,7l-1.15,8.23-4.78-1.15s2.25-20.29,2.3-20.28C218.92,228.53,221.08,228.19,225.37,230.19Zm-6,2.41-.19,4.4c2.67.7,5.79.72,6.22-1.15S223.21,232.75,219.35,232.6Z" transform="translate(-3.5 -34.02)"/><polygon class="cls-6" points="230.39 196.09 228.48 217.9 231.73 218.09 243.4 218.48 243.4 213.69 234.03 213.12 234.22 208.72 243.4 209.87 243.78 205.27 235.37 204.13 235.17 201.25 244.93 202.02 245.89 196.85 230.39 196.09"/><path class="cls-6" d="M269.15,234.56c2.52,1.35,3,3.16,2.73,6.17-.05.54-1.15,4.74-5,5.17l4.93,8.9-5.55.19-4-8.23h-2.1l-.19,8-5-1L256.52,232c4,.43,7.91.85,8.61,1A20.22,20.22,0,0,1,269.15,234.56ZM260.68,237v5c0,1.56,6-.06,6-2C266.73,237.73,260.67,237.25,260.68,237Z" transform="translate(-3.5 -34.02)"/><path class="cls-6" d="M293.78,235.47v4.4c-4-1.07-9.5-4-10.32-.57s8.87,4.5,10,10.12a4.66,4.66,0,0,1-4.67,6c-1.09,0-8.18-.57-11.67-2.3l.57-4a35.56,35.56,0,0,0,4.37,2c2.06.51,6.44.85,6.44-1.16,0-2.58-6.28-5.12-6.68-5.38A8.55,8.55,0,0,1,279,242a5.31,5.31,0,0,1,.74-5.91C283.23,231.87,289.4,234.53,293.78,235.47Z" transform="translate(-3.5 -34.02)"/><path class="cls-6" d="M338.37,238.91,338,243.5c.21-.76-7.48-1.58-8.46-1.29-3,.9-6.09,4.87-5.37,8.11a7.65,7.65,0,0,0,4.26,4.61c.37.15,4.33.67,4.4,0l.38-3.44-5-.77.19-3.83,10.14,1.34-.57,10c-.1.71-5.63,1.09-6.26,1.15a11,11,0,0,1-9-3.55c-2.51-2.78-4.35-8.17-2.78-11.77,1.36-3.11,5.85-6.28,9.14-6.84C330,237.08,338.44,238.09,338.37,238.91Z" transform="translate(-3.5 -34.02)"/><path class="cls-6" d="M348.89,240.06l5.55,1.34-.56,6.57c-.19,2.26-.64,4.58-.3,6.85a3.33,3.33,0,0,0,5.16,2.49c2.18-1.49,2.59-4.56,2.89-7,.09-.73.54-9.12.47-9.12l5,.38-.82,8.66c-.33,3.45,0,8-2.95,10.44-2.75,2.31-7,2.49-10.24,1.25-2.9-1.1-4.61-4.91-4.5-7.91.07-1.85.09-3.71.13-5.57Z" transform="translate(-3.5 -34.02)"/><polygon class="cls-6" points="373.14 207.71 371.42 228.62 376.58 229 378.5 208.53 373.14 207.71"/><polygon class="cls-6" points="388.07 207.95 393.42 209.29 391.7 225.18 401.08 226.9 400.69 230.72 388.83 229 386.34 226.51 388.07 207.95"/><path class="cls-6" d="M426.46,245.9a10.61,10.61,0,0,1,4.84,10.55c-.71,6.2-6,10.4-12.14,10.45-.62,0-7.3-.74-7.31-.62l1.91-22c.06-.63,8.14.34,8.89.41A9.57,9.57,0,0,1,426.46,245.9Zm-8.1,3.35-1.15,12.25c0,.7,4.79.19,5.27,0,3.11-1.25,4.13-5.32,3.06-8.25C424.24,249.69,421.54,249.63,418.36,249.25Z" transform="translate(-3.5 -34.02)"/><path class="cls-12" d="M122.39,159.29c0-.4-6.59-3.44-7.24-3.66-7-2.31-15-1.31-19.92,4.67-5.39,6.58-3.64,16.36,3.39,21.2,3.18,2.19,8.57,2.85,10.85,6.44,1.6,2.51.56,5.16-2,6.49-3.12,1.65-6,.44-9-1-2.57-1.22-5.15-2.42-7.72-3.63l-1,9.59c0,.33,4.74,2.47,5.26,2.74a26.84,26.84,0,0,0,19.24,1.53c5.58-1.59,6.62-8,7.18-13.06a12.36,12.36,0,0,0-.41-3.8c-1.3-6-3.57-6.6-8.52-9.56A40.83,40.83,0,0,1,106,173a7.09,7.09,0,0,1-2.58-5.35c.23-3.81,4.93-5,7.48-4.7,1.55.21,6.89,3,10.33,5.45C121.18,168.39,122.34,159.68,122.39,159.29Z" transform="translate(-3.5 -34.02)"/><path class="cls-12" d="M130.94,156.06l11.45,2.86c.29.07-2.17,14.45-2.33,15.56-.71,4.63-1.93,9.53-1.18,14.22.64,4,5.58,12,9.77,6.17,3.8-5.25,4.41-14.3,5.19-20.51.12-.94,1.51-14.29,1.79-14.29H166c-.29,5.31-.62,14-.8,17.27-.86,15.55-4.47,31.17-23.49,29.72-9.41-.72-14.37-11.74-13.6-20Z" transform="translate(-3.5 -34.02)"/><polygon class="cls-12" points="166.86 176.38 170.5 126.05 180.26 126.05 191.16 151.31 194.61 128.92 205.51 130.07 201.3 179.25 188.29 178.29 179.11 150.16 177.38 177.15 166.86 176.38"/><path class="cls-12" d="M246.89,206.35l.06,7.76a.68.68,0,0,1-.66.85c-5.17,1.11-10.55,1.71-15.72.63-8.34-1.74-15.27-8.73-15.95-17.41-.51-6.54-1-13.44,1.93-19.33,3.32-6.77,8.19-9.69,15.44-11.76,5.83-1.66,13.49.25,18.94,2.15l-1.19,9.27c-5.39-2.94-19.36-5.59-23,1.47-1.73,3.37-1.94,8.5-2,12.22C224.37,202.73,237.6,209.34,246.89,206.35Z" transform="translate(-3.5 -34.02)"/><path class="cls-12" d="M316.94,173.85,327.27,175l10.33,49.94H327.27L324.4,210l-9.76-.57L308.9,223.8l-11.48-2.3Zm-.57,25.26,6.31,2.3L321,187.06Z" transform="translate(-3.5 -34.02)"/><path class="cls-12" d="M262.06,175.42a20.92,20.92,0,0,1,7.42-4,21.87,21.87,0,0,1,17.74,2.41c13.07,8.25,12.86,27.26,3.82,38.43a21.86,21.86,0,0,1-13.81,8.24c-16.28,2.27-26.58-14.69-24-29.2A27.27,27.27,0,0,1,262.06,175.42Zm12,34.42a7.77,7.77,0,0,0,6.8-1.12c3.05-2.29,4.32-6.52,4.53-10.17a20.14,20.14,0,0,0-5.71-14.87c-2-2-5.07-3.15-7.74-2.23-2.41.83-4,3.12-5.24,5.34a23.89,23.89,0,0,0-3.5,9.66c-.39,4.63,1.82,8.37,5.58,10.91A17.2,17.2,0,0,0,274,209.84Z" transform="translate(-3.5 -34.02)"/><path class="cls-12" d="M374.56,180.6l-.46,9.5a36.9,36.9,0,0,0-9.66-3.47c-3.11-.34-6.16-.37-8.23,2.59a4.07,4.07,0,0,0,.26,4.48c2.3,3.43,7,4.72,10.38,6.7,7.92,4.62,10.9,14.5,5.3,22.23-3.75,5.18-10,4.29-15.64,3.54-1.31-.17-12.71-2.32-12.65-3.48,0,0,.63-8.42.63-8.5a59.35,59.35,0,0,0,8,2.58c3.35.85,4.49,1.22,7.89.43a9.32,9.32,0,0,0,2.72-1.39c2-1.35,1.69-3.46.52-5.26a8.63,8.63,0,0,0-2.83-2.52c-2.66-1.64-5.63-2.72-8.41-4.16-6.42-3.32-9.56-8.87-7.83-16.1,1.4-5.87,4.31-10.59,10.67-11.67a21.41,21.41,0,0,1,10.05.94C366.19,177.33,374.58,180.18,374.56,180.6Z" transform="translate(-3.5 -34.02)"/><polygon class="cls-12" points="381.22 147.34 380.84 157.51 392.27 157.52 391.52 197.27 402.41 196.53 404.34 157.27 414.73 157.72 415.74 147.29 381.22 147.34"/><path class="cls-12" d="M82.72,236.23,85,215c0-.06,6.82.35,7.37.41,4.66.55,9.32,4.25,9.47,9.18.22,7.4-3,10.52-9.93,11.63C91.24,236.35,82.59,237.46,82.72,236.23Zm10.45-4a5.81,5.81,0,0,0,3.65-5c.4-5.32-3.32-6.21-7.4-7.38l-1,12.63A30.79,30.79,0,0,0,93.17,232.2Z" transform="translate(-3.5 -34.02)"/><polygon class="cls-12" points="105.25 182.5 102.95 200.3 104.19 204.13 116.92 205.66 117.87 201.25 108.5 200.49 108.88 195.51 117.11 196.47 118.26 191.69 109.26 190.73 109.26 187.48 118.64 187.86 119.79 183.65 105.25 182.5"/><polygon class="cls-12" points="123.81 184.42 128.97 184.42 132.61 198.96 137.58 185.76 142.37 185.95 133.37 206.81 128.78 206.04 123.81 184.42"/><polygon class="cls-12" points="145.43 186.14 143.9 204.32 143.52 207.57 158.82 209.29 159.01 205.27 148.87 203.36 149.64 199.15 158.63 199.53 158.44 195.71 150.6 194.75 150.6 190.16 159.97 191.31 160.55 188.05 145.43 186.14"/><polygon class="cls-12" points="164.76 187.67 169.54 188.63 168.2 204.89 177.58 206.42 177.19 210.44 165.71 209.1 163.03 206.61 164.76 187.67"/><path class="cls-12" d="M187.83,227.32c2.33-2.14,4.56-4,7.94-3.14,5.16,1.37,10.14,3.22,10.89,9.29.34,2.77.1,7-1.85,9.13a9.94,9.94,0,0,1-2.81,1.93c-4.11,2.18-9.51,3.16-13.51-.08a4.75,4.75,0,0,1-.86-1c-1.51-2.17-3-4.46-3.43-7.07C183.58,232.47,185.33,229.62,187.83,227.32Zm2.69,3.25a6.41,6.41,0,0,0-1.8,3c-1.17,4.34,2.68,9.65,7.25,8.55a7.79,7.79,0,0,0,5.92-6c.7-4.29-2.72-6.4-6.33-7.1A5.75,5.75,0,0,0,190.51,230.56Z" transform="translate(-3.5 -34.02)"/><path class="cls-12" d="M223.07,227.89c2.17,1,4,3.34,4,4.22.43,5.74-5.89,7.55-10.81,7l-1.15,8.23-4.78-1.15s2.25-20.29,2.3-20.28C216.62,226.24,218.78,225.89,223.07,227.89Zm-6,2.41-.19,4.4c2.67.7,5.79.72,6.22-1.15S220.91,230.45,217.05,230.3Z" transform="translate(-3.5 -34.02)"/><polygon class="cls-12" points="228.09 193.79 226.18 215.61 229.43 215.8 241.11 216.18 241.11 211.4 231.73 210.82 231.92 206.42 241.11 207.57 241.49 202.98 233.07 201.83 232.88 198.96 242.64 199.72 243.59 194.56 228.09 193.79"/><path class="cls-12" d="M266.85,232.26c2.52,1.35,3,3.16,2.73,6.17-.05.54-1.15,4.74-5,5.17l4.93,8.9-5.55.19-4-8.23h-2.1l-.19,8-5-1,1.58-21.86c4,.43,7.91.85,8.61,1A20.22,20.22,0,0,1,266.85,232.26Zm-8.47,2.44v5c0,1.56,6-.06,6-2C264.43,235.43,258.38,235,258.38,234.7Z" transform="translate(-3.5 -34.02)"/><path class="cls-12" d="M291.49,233.17v4.4c-4-1.07-9.5-4-10.32-.57s8.87,4.5,10,10.12a4.66,4.66,0,0,1-4.67,6c-1.09,0-8.18-.57-11.67-2.3l.57-4a35.56,35.56,0,0,0,4.37,2c2.06.51,6.44.85,6.44-1.16,0-2.58-6.28-5.12-6.68-5.38a8.55,8.55,0,0,1-2.83-2.56,5.31,5.31,0,0,1,.74-5.91C280.94,229.58,287.1,232.24,291.49,233.17Z" transform="translate(-3.5 -34.02)"/><path class="cls-12" d="M336.07,236.62l-.38,4.59c.21-.76-7.48-1.58-8.46-1.29-3,.9-6.09,4.87-5.37,8.11a7.65,7.65,0,0,0,4.26,4.61c.37.15,4.33.67,4.4,0l.38-3.44-5-.77.19-3.83L336.27,246l-.57,10c-.1.71-5.63,1.09-6.26,1.15a11,11,0,0,1-9-3.55c-2.51-2.78-4.35-8.17-2.78-11.77,1.36-3.11,5.85-6.28,9.14-6.84C327.67,234.78,336.14,235.79,336.07,236.62Z" transform="translate(-3.5 -34.02)"/><path class="cls-12" d="M346.6,237.76l5.55,1.34-.56,6.57c-.19,2.26-.64,4.58-.3,6.85a3.33,3.33,0,0,0,5.16,2.49c2.18-1.49,2.59-4.56,2.89-7,.09-.73.54-9.12.47-9.12l5,.38L364,248c-.33,3.45,0,8-2.95,10.44-2.75,2.31-7,2.49-10.24,1.25-2.9-1.1-4.61-4.91-4.5-7.91.07-1.85.09-3.71.13-5.57Z" transform="translate(-3.5 -34.02)"/><polygon class="cls-12" points="370.84 205.42 369.12 226.32 374.29 226.71 376.2 206.23 370.84 205.42"/><polygon class="cls-12" points="385.77 205.66 391.13 207 389.41 222.88 398.78 224.6 398.4 228.43 386.54 226.71 384.05 224.22 385.77 205.66"/><path class="cls-12" d="M424.16,243.6A10.61,10.61,0,0,1,429,254.16c-.71,6.2-6,10.4-12.14,10.45-.62,0-7.3-.74-7.31-.62l1.91-22c.06-.63,8.14.34,8.89.41A9.57,9.57,0,0,1,424.16,243.6Zm-8.1,3.35-1.15,12.25c0,.7,4.79.19,5.27,0,3.11-1.25,4.13-5.32,3.06-8.25C421.95,247.39,419.25,247.33,416.06,246.95Z" transform="translate(-3.5 -34.02)"/><polygon class="cls-13" points="49.76 306.92 444.56 308.82 442.6 301.52 45.08 300.88 38.19 348.25 44.2 348.21 49.76 306.92"/><polygon class="cls-14" points="36.62 360.81 36.18 369.57 30.81 368.12 31.57 355.87 457.91 355.1 460.25 362.12 36.62 360.81"/><polygon class="cls-15" points="167.05 414.42 167.05 419.02 162.28 417.57 161.94 410.79 340.59 411.47 331.43 415 167.05 414.42"/></g><g id="Layer_3" data-name="Layer 3"><path class="cls-16" d="M305.21,310.46,377,293.37l11.68,35S400,320,419,322.4c31.65,3.94,36.44,32.78,36.44,32.78l-24.79,11.4s-3.15-11.69-17.53-11.91c-13.33-.2-15.79,6.79-15.79,6.79l-2.55,28.64,10.39-1.63L417,398.59l-5.22,19-12.05.43-7.27-6.62-.14,6.89L362,411.8s-3.27,7.26-22.89,8c-38.47,1.47-50.19-48.26-50.19-48.26l30.16-7.35s4.65,23.75,15.45,19.42c14-5.62-1.12-40.72-1.12-40.72l-16.79,4.33Z" transform="translate(-3.5 -34.02)"/><path class="cls-10" d="M306.39,306.78l71.74-17.1,11.68,35s11.33-8.3,30.4-5.93c31.65,3.94,36.44,32.78,36.44,32.78l-24.79,11.4s-3.15-11.69-17.53-11.91c-13.33-.2-15.79,6.79-15.79,6.79L396,386.43l10.39-1.63L418.2,394.9l-5.22,19-12.05.43-7.27-6.62-.14,6.89-30.34-6.5s-3.27,7.26-22.89,8c-38.47,1.47-50.19-48.26-50.19-48.26l30.16-7.35s4.65,23.75,15.45,19.42c14-5.62-1.12-40.72-1.12-40.72l-16.79,4.33Z" transform="translate(-3.5 -34.02)"/><path class="cls-4" d="M313.81,312.66l60.5-14.35,8.1,23.71-23.75,3.62,7,45.63s5.59,32.41-23.07,37.42-43.47-36.23-43.47-36.23l16.69-5.1S320,391,336.17,387.93s12.43-19.17,12.43-19.17L340.28,331l-19.53,6.18Z" transform="translate(-3.5 -34.02)"/><path class="cls-4" d="M376.2,343.61l-6,59.47,16.33,3.13,5.32-50.86s3.69-10.8,21.83-10.83c17.89,0,22.8,12.08,22.8,12.08l13.38-6s-2.9-17.47-30-23.9c-16.35-3.88-29.33,8.57-29.33,8.57L381.24,327l-11.79,11.89Z" transform="translate(-3.5 -34.02)"/><polygon class="cls-4" points="398.52 355.15 392.64 365.96 394.86 372.05 404.48 374.57 408.96 363.46 405.56 356.68 398.52 355.15"/></g></svg>