<?xml version="1.0" standalone="no"?>
<!DOCTYPE svg PUBLIC "-//W3C//DTD SVG 1.1//EN" "http://www.w3.org/Graphics/SVG/1.1/DTD/svg11.dtd">
<svg width="100%" height="100%" viewBox="0 0 378 215" version="1.1" xmlns="http://www.w3.org/2000/svg" xmlns:xlink="http://www.w3.org/1999/xlink" xml:space="preserve" style="fill-rule:evenodd;clip-rule:evenodd;stroke-linejoin:round;stroke-miterlimit:1.41421;">
    <g id="slack" transform="matrix(3.77477,0,0,2.14205,0,0)">
        <g transform="matrix(0.207289,-0.0647909,0.0367666,0.36529,-32.523,-0.0725948)">
            <path d="M339.934,301.201L473.836,332.962L578.341,329.038L593.065,250.394L554.035,227.695L558.018,176.701L343.536,161.571L339.934,301.201Z" style="fill:rgb(241,241,241);fill-opacity:0.396078;"/>
        </g>
        <g transform="matrix(0.207289,-0.0647909,0.0367666,0.36529,-34.3752,-4.42476)">
            <path d="M260.011,315.522L470.48,332.466L578.341,329.038L593.065,250.394L554.035,227.695L574.27,163.933L488.648,126.908L400.655,149.636L334.45,72.712L204.141,94.93L178.047,187.985L127.981,220.609L138.658,309.003L241.446,313.413L253.693,305.25L260.011,315.522Z" style="fill:white;"/>
        </g>
        <g transform="matrix(0.207289,-0.0647909,0.0367666,0.36529,-34.3752,-4.42476)">
            <path d="M138.658,309.003L127.981,220.609L178.047,187.985L204.141,94.93L334.45,72.712L380.048,126.908L324.687,89.026L219.499,110.468L203.715,202.946L152.709,232.23L166.071,288.969L181.575,285.628L181.901,310.573L138.658,309.003Z" style="fill:rgb(232,238,238);"/>
        </g>
        <g transform="matrix(0.207289,-0.0647909,0.0367666,0.36529,-34.3752,-4.42476)">
            <path d="M387.706,198.165L388.036,153.189L488.648,126.908L574.27,163.933L554.035,227.695L593.065,250.394L578.341,329.038L485.771,332.466L484.702,314.448L565.213,315.192L576.675,258.157L542.197,238.853L536.911,259.877L541.604,271.03L526.426,263.234L529.812,229.215L545.032,171.483L487.3,148.512L398.104,168.973L387.706,198.165Z" style="fill:rgb(232,238,238);"/>
        </g>
        <g transform="matrix(0.207289,-0.0647909,0.0367666,0.36529,-34.3752,-4.42476)">
            <path d="M552.818,262.741L561.165,258.298L566.196,249.996L556.862,234.833L541.684,240.352L535.633,227.473L518.047,233.363L521.594,245.694L509.831,249.158L506.307,239.756L497.537,236.696L486.257,245.306L490.123,256.311L478.492,260.809L475.903,269.176L486.453,282.298L496.972,278.674L500.207,291.099L490.336,293.915L488.136,304.661L493.866,309.876L495.905,317.562L506.532,313.451L509.495,323.753L522.182,327.543L532.634,313.238L530.465,306.556L539.898,301.783L545.835,313.286L555.965,312.898L562.085,315.988L567.392,307.851L564.042,293.852L574.266,289.629L577.761,276.345L572.21,268.641L556.5,272.768L552.818,262.741Z" style="fill:rgb(253,255,255);"/>
            <g transform="matrix(1.3305,0,0,1.3305,-173.78,-93.2164)">
                <path d="M501.716,264.499L505.707,276.565L495.613,280.066L490.093,272.547L492.554,267.384L501.716,264.499Z" style="fill:rgb(110,201,220);"/>
                <path d="M521.826,311.749L527.488,305.962L509.37,252.644L504.998,250.413L498.446,254.616L516.752,309.951L521.826,311.749Z" style="fill:rgb(62,185,145);"/>
                <path d="M500.715,293.037L499.784,298.094L504.509,301.12L505.582,303.51L559.101,284.884L560.849,278.338L557.359,274.495L500.715,293.037Z" style="fill:rgb(224,21,99);"/>
                <path d="M531.36,243.76L552.93,301.173L551.56,303.51L548.565,302.456L541.151,302.893L522.527,246.418L531.36,243.76Z" style="fill:rgb(232,168,32);"/>
                <path d="M516.255,272.906L512.269,261.176L526.124,256.814L536.766,253.463L546.957,250.254L551.56,257.738L550.301,261.098L540.615,264.458L529.749,268.226L516.255,272.906Z" style="fill:rgb(110,201,220);"/>
            </g>
        </g>
        <g transform="matrix(0.207289,-0.0647909,0.0367666,0.36529,-33.8299,-3.54096)">
            <path d="M226.128,130.308L220.761,129.696L220.761,122.07L239.896,122.07L239.769,128.081L235.332,130.15C235.332,130.15 242.013,152.999 237.56,161.501C233.106,170.002 219.72,173.849 219.72,173.849L217.505,164.469C217.505,164.469 227.336,164.905 228.424,157.171C229.512,149.438 226.128,130.308 226.128,130.308Z" style="fill:rgb(215,215,215);"/>
        </g>
        <g transform="matrix(0.207289,-0.0647909,0.0367666,0.36529,-33.8299,-3.54096)">
            <path d="M265.003,125.165C284.833,125.573 285.411,135.63 286.252,145.007C287.092,154.383 279.964,168.262 268.922,167.578C257.88,166.894 246.996,163.054 246.996,149.208C246.996,135.362 250.497,124.867 265.003,125.165ZM275.75,143.101C275.465,151.496 273.407,156.685 266.711,156.669C260.015,156.654 257.447,152.551 257.447,144.191C257.447,134.726 258.879,133.192 267.116,133.192C275.352,133.192 275.981,136.324 275.75,143.101Z" style="fill:rgb(215,215,215);"/>
        </g>
        <g transform="matrix(0.207289,-0.0647909,0.0367666,0.36529,-33.8299,-3.54096)">
            <path d="M310.207,160.255L294.749,163.026L291.717,131.695L295.582,126.068L305.154,125.928L305.154,131.367L302.138,132.578L303.881,153.496L310.684,155.213L310.207,160.255Z" style="fill:rgb(215,215,215);"/>
        </g>
        <g transform="matrix(0.207289,-0.0647909,0.0367666,0.36529,-33.8299,-3.54096)">
            <path d="M317.853,156.194L318.274,119.037L328.581,117.405L345.842,142.815L343.37,116.317L352.852,114.511L356.659,154.579L346.246,155L325.356,131.025L329.529,155.617L317.853,156.194Z" style="fill:rgb(215,215,215);"/>
        </g>
        <g transform="matrix(0.207289,-0.0647909,0.0367666,0.36529,-36.2448,-0.966712)">
            <path d="M318.269,171.161C318.269,171.161 316.939,181.886 317.019,191.57C317.201,213.755 344.194,216.821 349.993,206.126C355.792,195.431 355.875,171.771 355.875,171.771L345.853,170.544C345.853,170.544 347.282,205.295 334.706,203.383C321.237,201.335 328.295,172.076 328.295,172.076L318.269,171.161Z" style="fill:rgb(215,215,215);"/>
        </g>
        <g transform="matrix(0.207289,-0.0647909,0.0367666,0.36529,-38.5006,-1.36789)">
            <path d="M398.025,183.504L400.191,174.177C400.191,174.177 381.484,166.643 375.465,173.377C370.031,179.456 370.563,187.088 376.542,191.144C382.522,195.2 391.572,199.49 389.303,203.481C382.691,215.111 373.041,200.087 373.041,200.087L368.01,206.039C368.01,206.039 385.87,225.534 396.383,205.997C404.067,191.715 389.047,190.536 384.048,185.9C378.703,180.942 380.824,176.112 384.145,176.112C389.246,176.112 392.257,177.791 392.257,177.791L391.53,182.321L398.025,183.504Z" style="fill:rgb(215,215,215);"/>
        </g>
        <g transform="matrix(0.207289,-0.0647909,0.0367666,0.36529,-34.1551,-1.42229)">
            <path d="M449.729,165.841C466.341,170.036 466.322,182.455 465.313,189.278C464.304,196.101 456.469,212.214 441.29,207.456C426.111,202.697 423.959,195.837 426.843,181.666C429.726,167.496 442.125,163.921 449.729,165.841ZM453.728,190.22C452.477,193.843 449.37,199.567 442.093,197.123C437.497,195.58 435.463,191.355 436.924,184.152C438.024,178.728 439.814,173.23 448.539,175.888C457.264,178.547 455.228,185.88 453.728,190.22Z" style="fill:rgb(215,215,215);"/>
        </g>
        <g transform="matrix(0.207289,-0.0647909,0.0367666,0.36529,-34.2143,-1.29102)">
            <path d="M467.871,206.845L476.359,167.352L490.041,169.926L498.821,202.25L504.848,173.118L515.421,174.875L513.934,180.029L511.544,180.159L503.63,213.914L494.523,212.293L482.993,182.7L478.392,208.261L467.871,206.845Z" style="fill:rgb(215,215,215);"/>
        </g>
        <g transform="matrix(0.207289,-0.0647909,0.0367666,0.36529,-33.8299,-3.54096)">
            <path d="M223.541,229.355C223.541,229.355 216.798,214.85 205.043,214.466C193.289,214.083 181.799,214.445 178.19,228.691C174.58,242.937 183.059,249.067 189.585,251.629C196.112,254.19 207.527,264.135 205.644,270.223C203.762,276.311 195.565,277.242 190.223,275.557C184.88,273.872 182.557,271.926 182.557,271.926L183.208,262.365L172.99,259.214L167.682,277.302C167.682,277.302 187.218,288.861 202.525,284.533C217.832,280.205 219.737,272.187 220.449,262.071C221.161,251.955 203.441,243.381 195.867,237.487C190.795,233.539 190.717,227.583 195.304,224.384C204.577,217.917 213.078,233.913 213.078,233.913L223.541,229.355Z" style="fill:rgb(215,215,215);"/>
        </g>
        <g transform="matrix(0.209375,-0.0387239,0.0219745,0.368965,-31.071,-8.34764)">
            <path d="M237.277,223.629L234.461,268.643L232.444,269.188L230.583,277.015L276.295,279.674L277.088,261.106L267.859,262.148L266.011,270.204L247.644,269.591L250.731,213.828L231.939,212.854L231.393,221.531L237.277,223.629Z" style="fill:rgb(215,215,215);"/>
        </g>
        <g transform="matrix(0.207289,-0.0647909,0.0367666,0.36529,-33.8299,-3.54096)">
            <path d="M278.104,285.554L282.44,284.376L308.932,225.494L320.369,226.976L345.838,294.333L328.747,295.133L328.858,285.693L323.667,275.963L299.679,274.382L292.882,294.048L275.864,293.899L278.104,285.554ZM302.364,266.212L321.341,267.266L312.802,240.612L302.364,266.212Z" style="fill:rgb(215,215,215);"/>
        </g>
        <g transform="matrix(0.207289,-0.0647909,0.0367666,0.36529,-33.8299,-3.54096)">
            <path d="M405.567,236.749L396.721,240.203L392.88,234.982C392.88,234.982 362.132,226.381 366.294,262.746C368.774,284.413 386.897,284.623 393.446,283.172C399.994,281.721 404.324,279.734 404.324,279.734L406.501,289.846C406.501,289.846 389.813,300.313 371.085,293.312C352.356,286.311 349.163,269.37 350.298,255.9C351.433,242.429 360.279,228.817 375.734,225.895C391.188,222.974 404.826,227.637 404.826,227.637L405.567,236.749Z" style="fill:rgb(215,215,215);"/>
        </g>
        <g transform="matrix(0.207289,-0.0647909,0.0367666,0.36529,-33.8299,-3.54096)">
            <path d="M419.259,232.192L421.113,289.925L417.498,290.372L416.987,298.701L436.796,297.61L436.647,269.609L439.836,269.02L464.388,300.342L478.905,298.705L482.18,284.05L471.879,283.454L453.298,264.305L477.199,231.971L457.962,231.958L445.051,257.665L435.363,257.175L435.667,241.446L440.735,240.323L441.033,231.51L419.259,232.192Z" style="fill:rgb(215,215,215);"/>
        </g>
        <g transform="matrix(0.207289,-0.0647909,0.0367666,0.36529,-34.3752,-4.42476)">
            <path d="M226.128,130.308L220.761,129.696L220.761,122.07L239.896,122.07L239.769,128.081L235.332,130.15C235.332,130.15 242.013,152.999 237.56,161.501C233.106,170.002 219.72,173.849 219.72,173.849L217.505,164.469C217.505,164.469 227.336,164.905 228.424,157.171C229.512,149.438 226.128,130.308 226.128,130.308Z" style="fill:rgb(84,84,84);"/>
        </g>
        <g transform="matrix(0.207289,-0.0647909,0.0367666,0.36529,-34.3752,-4.42476)">
            <path d="M265.003,125.165C284.833,125.573 285.411,135.63 286.252,145.007C287.092,154.383 279.964,168.262 268.922,167.578C257.88,166.894 246.996,163.054 246.996,149.208C246.996,135.362 250.497,124.867 265.003,125.165ZM275.75,143.101C275.465,151.496 273.407,156.685 266.711,156.669C260.015,156.654 257.447,152.551 257.447,144.191C257.447,134.726 258.879,133.192 267.116,133.192C275.352,133.192 275.981,136.324 275.75,143.101Z" style="fill:rgb(84,84,84);"/>
        </g>
        <g transform="matrix(0.207289,-0.0647909,0.0367666,0.36529,-34.3752,-4.42476)">
            <path d="M310.207,160.255L294.749,163.026L291.717,131.695L295.582,126.068L305.154,125.928L305.154,131.367L302.138,132.578L303.881,153.496L310.684,155.213L310.207,160.255Z" style="fill:rgb(84,84,84);"/>
        </g>
        <g transform="matrix(0.207289,-0.0647909,0.0367666,0.36529,-34.5278,-2.09181)">
            <path d="M297.257,103.535C302.764,103.535 304.429,105.111 304.429,109.339C304.429,113.567 303.573,114.424 297.998,114.424C292.424,114.424 291.582,111.867 292.003,108.99C292.424,106.114 291.75,103.535 297.257,103.535Z" style="fill:rgb(84,84,84);"/>
        </g>
        <g transform="matrix(0.207289,-0.0647909,0.0367666,0.36529,-34.3752,-4.42476)">
            <path d="M317.853,156.194L318.274,119.037L328.581,117.405L345.842,142.815L343.37,116.317L352.852,114.511L356.659,154.579L346.246,155L325.356,131.025L329.529,155.617L317.853,156.194Z" style="fill:rgb(84,84,84);"/>
        </g>
        <g transform="matrix(0.207289,-0.0647909,0.0367666,0.36529,-36.7901,-1.85051)">
            <path d="M318.269,171.161C318.269,171.161 316.939,181.886 317.019,191.57C317.201,213.755 344.194,216.821 349.993,206.126C355.792,195.431 355.875,171.771 355.875,171.771L345.853,170.544C345.853,170.544 347.282,205.295 334.706,203.383C321.237,201.335 328.295,172.076 328.295,172.076L318.269,171.161Z" style="fill:rgb(84,84,84);"/>
        </g>
        <g transform="matrix(0.207289,-0.0647909,0.0367666,0.36529,-39.0459,-2.25169)">
            <path d="M398.025,183.504L400.191,174.177C400.191,174.177 381.484,166.643 375.465,173.377C370.031,179.456 370.563,187.088 376.542,191.144C382.522,195.2 391.572,199.49 389.303,203.481C382.691,215.111 373.041,200.087 373.041,200.087L368.01,206.039C368.01,206.039 385.87,225.534 396.383,205.997C404.067,191.715 389.047,190.536 384.048,185.9C378.703,180.942 380.824,176.112 384.145,176.112C389.246,176.112 392.257,177.791 392.257,177.791L391.53,182.321L398.025,183.504Z" style="fill:rgb(84,84,84);"/>
        </g>
        <g transform="matrix(0.207289,-0.0647909,0.0367666,0.36529,-34.7004,-2.30609)">
            <path d="M449.729,165.841C466.341,170.036 466.322,182.455 465.313,189.278C464.304,196.101 456.469,212.214 441.29,207.456C426.111,202.697 423.959,195.837 426.843,181.666C429.726,167.496 442.125,163.921 449.729,165.841ZM453.728,190.22C452.477,193.843 449.37,199.567 442.093,197.123C437.497,195.58 435.463,191.355 436.924,184.152C438.024,178.728 439.814,173.23 448.539,175.888C457.264,178.547 455.228,185.88 453.728,190.22Z" style="fill:rgb(84,84,84);"/>
        </g>
        <g transform="matrix(0.207289,-0.0647909,0.0367666,0.36529,-34.7596,-2.17482)">
            <path d="M467.871,206.845L476.359,167.352L490.041,169.926L498.821,202.25L504.848,173.118L515.421,174.875L513.934,180.029L511.544,180.159L503.63,213.914L494.523,212.293L482.993,182.7L478.392,208.261L467.871,206.845Z" style="fill:rgb(84,84,84);"/>
        </g>
        <g transform="matrix(0.207289,-0.0647909,0.0367666,0.36529,-34.3752,-4.42476)">
            <path d="M223.541,229.355C223.541,229.355 216.798,214.85 205.043,214.466C193.289,214.083 181.799,214.445 178.19,228.691C174.58,242.937 183.059,249.067 189.585,251.629C196.112,254.19 207.527,264.135 205.644,270.223C203.762,276.311 195.565,277.242 190.223,275.557C184.88,273.872 182.557,271.926 182.557,271.926L183.208,262.365L172.99,259.214L167.682,277.302C167.682,277.302 187.218,288.861 202.525,284.533C217.832,280.205 219.737,272.187 220.449,262.071C221.161,251.955 203.441,243.381 195.867,237.487C190.795,233.539 190.717,227.583 195.304,224.384C204.577,217.917 213.078,233.913 213.078,233.913L223.541,229.355Z" style="fill:rgb(84,84,84);"/>
        </g>
        <g transform="matrix(0.209375,-0.0387239,0.0219745,0.368965,-31.6163,-9.23144)">
            <path d="M237.277,223.629L234.461,268.643L232.444,269.188L230.583,277.015L276.295,279.674L277.088,261.106L267.859,262.148L266.011,270.204L247.644,269.591L250.731,213.828L231.939,212.854L231.393,221.531L237.277,223.629Z" style="fill:rgb(84,84,84);"/>
        </g>
        <g transform="matrix(0.207289,-0.0647909,0.0367666,0.36529,-34.3752,-4.42476)">
            <path d="M278.104,285.554L282.44,284.376L308.932,225.494L320.369,226.976L345.838,294.333L328.747,295.133L328.858,285.693L323.667,275.963L299.679,274.382L292.882,294.048L275.864,293.899L278.104,285.554ZM302.364,266.212L321.341,267.266L312.802,240.612L302.364,266.212Z" style="fill:rgb(84,84,84);"/>
        </g>
        <g transform="matrix(0.207289,-0.0647909,0.0367666,0.36529,-34.3752,-4.42476)">
            <path d="M405.567,236.749L396.721,240.203L392.88,234.982C392.88,234.982 362.132,226.381 366.294,262.746C368.774,284.413 386.897,284.623 393.446,283.172C399.994,281.721 404.324,279.734 404.324,279.734L406.501,289.846C406.501,289.846 389.813,300.313 371.085,293.312C352.356,286.311 349.163,269.37 350.298,255.9C351.433,242.429 360.279,228.817 375.734,225.895C391.188,222.974 404.826,227.637 404.826,227.637L405.567,236.749Z" style="fill:rgb(84,84,84);"/>
        </g>
        <g transform="matrix(0.207289,-0.0647909,0.0367666,0.36529,-34.3752,-4.42476)">
            <path d="M419.259,232.192L421.113,289.925L417.498,290.372L416.987,298.701L436.796,297.61L436.647,269.609L439.836,269.02L464.388,300.342L478.905,298.705L482.18,284.05L471.879,283.454L453.298,264.305L477.199,231.971L457.962,231.958L445.051,257.665L435.363,257.175L435.667,241.446L440.735,240.323L441.033,231.51L419.259,232.192Z" style="fill:rgb(84,84,84);"/>
        </g>
    </g>
</svg>
