<?xml version="1.0" standalone="no"?>
<!DOCTYPE svg PUBLIC "-//W3C//DTD SVG 1.1//EN" "http://www.w3.org/Graphics/SVG/1.1/DTD/svg11.dtd">
<svg width="100%" height="100%" viewBox="0 0 501 268" version="1.1" xmlns="http://www.w3.org/2000/svg" xmlns:xlink="http://www.w3.org/1999/xlink" xml:space="preserve" style="fill-rule:evenodd;clip-rule:evenodd;stroke-linejoin:round;stroke-miterlimit:1.41421;">
    <g id="sun" transform="matrix(2.99705,0,0,2.99705,-553.663,-697.249)">
        <path d="M219.684,322.066L347.133,322.066C347.133,322.066 351.325,308.182 351.587,299.013C351.849,289.844 348.076,267.952 340.883,260.019C321.189,238.3 296.497,231.331 276.839,232.843C257.182,234.355 233.647,249.583 222.936,269.089C213.261,286.709 214.055,297.703 214.841,304.776C215.627,311.849 219.684,322.066 219.684,322.066Z" style="fill:rgb(215,87,44);fill-rule:nonzero;"/>
    </g>
    <g id="bird-b" transform="matrix(1,0,0,1,-529.9,-272.001)">
        <g transform="matrix(2.99705,0,0,2.99705,-23.7631,-425.249)">
            <g opacity="0.300003">
                <clipPath id="_clip1">
                    <rect x="184.736" y="276.615" width="49.244" height="12.941"/>
                </clipPath>
                <g clip-path="url(#_clip1)">
                    <path d="M207.244,276.615L210.65,276.877L213.4,280.806C213.4,280.806 225.276,279.977 228.289,281.811C231.301,283.644 233.98,288.044 233.98,288.044L230.837,288.175C230.837,288.175 229.598,285.129 226.629,284.081C223.661,283.033 212.09,286.308 212.09,286.308L209.471,282.64L207.113,285.129C207.113,285.129 193.163,283.114 191.002,284.081C188.841,285.048 186.963,289.556 186.963,289.556L184.736,289.163C184.736,289.163 187.378,282.466 190.216,281.068C193.054,279.671 204.755,281.33 204.755,281.33L207.244,276.615Z" style="fill:rgb(35,31,32);fill-rule:nonzero;"/>
                </g>
            </g>
        </g>
        <g transform="matrix(2.99705,0,0,2.99705,-23.7631,-425.249)">
            <path d="M207.244,274.519L210.65,274.781L213.4,278.71C213.4,278.71 225.276,277.881 228.289,279.715C231.301,281.548 233.98,285.948 233.98,285.948L230.837,286.079C230.837,286.079 229.598,283.033 226.629,281.985C223.661,280.937 212.09,284.212 212.09,284.212L209.471,280.544L207.113,283.033C207.113,283.033 193.163,281.018 191.002,281.985C188.841,282.952 186.963,287.46 186.963,287.46L184.736,287.067C184.736,287.067 187.378,280.37 190.216,278.972C193.054,277.575 204.755,279.234 204.755,279.234L207.244,274.519Z" style="fill:white;fill-rule:nonzero;"/>
        </g>
    </g>
    <g id="bird-a" transform="matrix(1,0,0,1,-529.9,-272.001)">
        <g transform="matrix(2.99705,0,0,2.99705,-23.7631,-425.249)">
            <g opacity="0.300003">
                <path d="M262.911,292.071L267.888,291.416L271.294,297.179C274.056,297.108 276.818,297.037 279.58,296.965C284.23,296.845 289.315,296.499 293.864,298.032C299.618,299.97 302.056,304.698 303.798,310.171C303.798,310.171 299.744,309.656 299.738,309.648C298.672,308.111 296.452,305.287 295.786,304.756C293.849,303.211 291.418,302.696 288.942,302.273C286.026,301.775 283.41,302.653 280.554,303.079C277.067,303.599 273.733,304.518 270.246,305.038L266.055,299.013L261.47,304.121C257.925,303.746 254.379,303.37 250.834,302.994C247.632,302.655 243.731,301.783 240.426,302.419C236.572,303.16 233.091,306.086 232.052,308.766C232.052,308.766 228.206,308.532 228.201,308.531C230.646,304.165 235.251,300.167 235.71,299.974C239.028,298.576 242.524,297.328 249.906,297.614C252.931,297.731 255.956,297.848 258.982,297.965L262.911,292.071Z" style="fill:rgb(35,31,32);fill-rule:nonzero;"/>
            </g>
        </g>
        <g transform="matrix(2.99705,0,0,2.99705,-23.7631,-425.249)">
            <path d="M262.911,289.975L267.888,289.32L271.294,295.083C274.056,295.012 276.818,294.941 279.58,294.869C284.23,294.749 289.315,294.402 293.864,295.936C299.618,297.874 302.056,302.602 303.798,308.075C303.798,308.075 299.744,307.56 299.738,307.552C298.672,306.015 296.452,303.191 295.786,302.66C293.849,301.115 291.418,300.6 288.942,300.177C286.026,299.679 283.41,300.557 280.554,300.983C277.067,301.503 273.733,302.422 270.246,302.942L266.055,296.917L261.47,302.025C257.925,301.65 254.379,301.274 250.834,300.898C247.632,300.559 243.731,299.687 240.426,300.323C236.572,301.064 233.091,303.99 232.052,306.67C232.052,306.67 228.206,306.436 228.201,306.435C230.646,302.069 235.251,298.071 235.71,297.878C239.028,296.48 242.524,295.232 249.906,295.518C252.931,295.635 255.956,295.752 258.982,295.869L262.911,289.975Z" style="fill:white;fill-rule:nonzero;"/>
        </g>
    </g>
</svg>
