<?xml version="1.0" standalone="no"?>
<!DOCTYPE svg PUBLIC "-//W3C//DTD SVG 1.1//EN" "http://www.w3.org/Graphics/SVG/1.1/DTD/svg11.dtd">
<svg width="100%" height="100%" viewBox="0 0 287 142" version="1.1" xmlns="http://www.w3.org/2000/svg" xmlns:xlink="http://www.w3.org/1999/xlink" xml:space="preserve" style="fill-rule:evenodd;clip-rule:evenodd;stroke-linejoin:round;stroke-miterlimit:1.41421;">
    <g transform="matrix(1,0,0,1,-1,-225.204)">
        <g id="cloud" transform="matrix(0.861153,0,0,1,167.597,-23.3878)">
            <g transform="matrix(1.43127,0,0,1.23254,-727.598,187.933)">
                <path d="M592.136,156.401L598.072,148.755L605.701,129.519L570.7,116.391L556.68,96.754L538.508,102.398L524.155,59.715L485.602,49.215L453.574,79.06L433.377,62.695L400.21,71.448L389.374,116.455L373.194,127.291L386.75,161.294L403.53,163.837L477.678,155.893L549.639,156.494L592.136,156.401Z" style="fill:white;"/>
                <path d="M403.53,163.837L405.126,158.13L393.187,153.938L383.595,130.14L396.944,121.859L410.249,77.492L432.078,71.618L449.125,86.579L455.79,101.62L457.086,86.152L488.261,58.054L519.222,67.094L531.903,105.463L518.384,105.16L520.562,113.746L533.664,111.722L554.906,102.828L564.052,114.853L555.359,119.86L568.07,121.72L596.299,134.368L591.587,146.135L598.072,148.755L605.701,129.519L570.7,116.391L556.68,96.754L538.508,102.398L524.155,59.715L485.602,49.215L453.574,79.06L433.377,62.695L400.21,71.448L389.374,116.455L373.194,127.291L386.75,161.294L403.53,163.837Z" style="fill:rgb(232,238,238);"/>
            </g>
        </g>
    </g>
</svg>
