<?xml version="1.0" standalone="no"?>
<!DOCTYPE svg PUBLIC "-//W3C//DTD SVG 1.1//EN" "http://www.w3.org/Graphics/SVG/1.1/DTD/svg11.dtd">
<svg width="100%" height="100%" viewBox="0 0 335 300" version="1.1" xmlns="http://www.w3.org/2000/svg" xmlns:xlink="http://www.w3.org/1999/xlink" xml:space="preserve" style="fill-rule:evenodd;clip-rule:evenodd;stroke-linejoin:round;stroke-miterlimit:1.41421;">
    <g transform="matrix(1,0,0,1,-813.876,-1018.19)">
        <g id="Logo" transform="matrix(1.30372,0,0,1.30372,206.254,-1118.63)">
            <g transform="matrix(0.76414,0,0,0.76414,91.3608,426.824)">
                <path d="M553.164,1618.55L556.96,1599.14L563.307,1593.32L751.33,1594.78L762.271,1649.17L771.24,1649.91L773.107,1666.34L814.995,1663.32L819.251,1668.41L800.358,1708.41L826.624,1758.66L785.8,1762.65L789.906,1786.54C792.141,1798.22 793.728,1801.89 796.603,1813.28L803.024,1830.85L696.106,1871.44L654.807,1887.11L509.425,1834.7L510.297,1821.26L514.403,1819.77L520.749,1784.3L530.174,1736.11L522.989,1735.77L530.455,1715.24L495.364,1714.12L520.003,1663.72L506.014,1636.42L508.243,1634.42L504.508,1633.48L496.857,1618.55L553.164,1618.55Z" style="fill:rgb(82,82,82);fill-opacity:0.8;"/>
            </g>
            <g transform="matrix(0.544463,0,0,0.544463,450.505,1609.74)">
                <path d="M115.032,61.934L123.94,53.771L387.825,55.821L441.965,324.947L451.695,373.963L458.382,392.535L253.001,466.583L48.318,392.535L49.541,373.673L55.304,371.577L64.211,321.804L115.032,61.934Z" style="fill:rgb(89,146,147);fill-rule:nonzero;"/>
            </g>
            <g transform="matrix(0.544463,0,0,0.544463,450.505,1609.74)">
                <path d="M121.843,68.222L132.147,60.712L381.538,62.109L433.931,321.979L72.593,321.281L121.843,68.222Z" style="fill:rgb(129,207,211);fill-rule:nonzero;"/>
            </g>
            <g transform="matrix(0.544463,0,0,0.544463,450.505,1609.74)">
                <path d="M382.499,68.222L381.538,62.109L132.147,60.712L121.843,68.222L72.594,321.281L77.571,321.281L125.511,70.842L133.37,64.816L382.499,68.222Z" style="fill:rgb(118,189,188);fill-rule:nonzero;"/>
            </g>
            <g transform="matrix(0.544463,0,0,0.544463,450.505,1609.74)">
                <path d="M219.556,321.804L347.133,322.066C347.133,322.066 351.325,308.182 351.587,299.013C351.849,289.844 343.99,270.284 343.99,270.284L233.964,261.552C233.964,261.552 221.652,272.554 218.77,280.675C215.888,288.796 214.055,297.703 214.841,304.776C215.627,311.849 219.556,321.804 219.556,321.804" style="fill:rgb(215,87,44);fill-rule:nonzero;"/>
            </g>
            <g transform="matrix(0.544463,0,0,0.544463,450.505,1609.74)">
                <clipPath id="_clip1">
                    <rect x="76.261" y="106.73" width="361.251" height="175.779"/>
                </clipPath>
                <g clip-path="url(#_clip1)">
                    <g opacity="0.300003">
                        <clipPath id="_clip2">
                            <rect x="76.261" y="106.73" width="361.251" height="175.779"/>
                        </clipPath>
                        <g clip-path="url(#_clip2)">
                            <path d="M106.649,106.73L76.261,259.456L147.166,261.552L148.214,259.107L150.31,261.552L437.512,282.509L402.408,129.259L106.649,106.73Z" style="fill:rgb(35,31,32);fill-rule:nonzero;"/>
                        </g>
                    </g>
                </g>
            </g>
            <g transform="matrix(0.544463,0,0,0.544463,450.505,1609.74)">
                <path d="M30.679,89.179L109.793,89.179L106.125,109.088L362.689,128.858L365.646,133.364L368.964,129.341L415.768,133.189L418.388,156.242L482.832,155.194L487.547,160.958L456.635,224.353L490.167,290.892L436.202,295.608L432.534,279.366L151.707,257.885L148.04,252.645L145.42,257.361L67.354,253.693L77.833,224.877L28.583,223.305L63.163,152.575L43.53,114.258L46.659,111.446L41.417,110.135L30.679,89.179Z" style="fill:rgb(137,88,129);fill-rule:nonzero;"/>
            </g>
            <g transform="matrix(0.544463,0,0,0.544463,450.505,1609.74)">
                <path d="M54.256,122.186L93.027,120.614L89.359,166.196L76.785,218.589L36.966,219.113L69.974,155.718L54.256,122.186Z" style="fill:rgb(198,168,181);fill-rule:nonzero;"/>
            </g>
            <g transform="matrix(0.544463,0,0,0.544463,450.505,1609.74)">
                <path d="M104.029,151.003L80.976,246.358L143.324,251.598L149.087,247.406L152.755,252.122L435.153,272.031L422.404,225.751L415.069,178.771L104.029,151.003Z" style="fill:rgb(198,168,181);fill-rule:nonzero;"/>
            </g>
            <g transform="matrix(0.544463,0,0,0.544463,450.505,1609.74)">
                <path d="M462.398,189.774L466.066,195.013L449.824,224.877L480.212,286.177L443.013,289.146L441.965,279.366L447.204,275.699L430.264,225.751L424.85,189.25L462.398,189.774Z" style="fill:rgb(198,168,181);fill-rule:nonzero;"/>
            </g>
            <g transform="matrix(0.544463,0,0,0.544463,450.505,1609.74)">
                <path d="M57.4,378.563L56.701,389.74L156.598,424.669L349.404,423.272L450.698,390.439L446.506,377.864L57.4,378.563Z" style="fill:rgb(255,242,0);fill-rule:nonzero;"/>
            </g>
            <g transform="matrix(0.544463,0,0,0.544463,450.505,1609.74)">
                <path d="M69.726,328.379L63.438,371.606L443.711,370.181L432.535,328.965L69.726,328.379Z" style="fill:rgb(249,160,27);fill-rule:nonzero;"/>
            </g>
            <g transform="matrix(0.544463,0,0,0.544463,450.505,1609.74)">
                <clipPath id="_clip3">
                    <rect x="184.736" y="276.615" width="49.244" height="12.941"/>
                </clipPath>
                <g clip-path="url(#_clip3)">
                    <g opacity="0.300003">
                        <clipPath id="_clip4">
                            <rect x="184.736" y="276.615" width="49.244" height="12.941"/>
                        </clipPath>
                        <g clip-path="url(#_clip4)">
                            <path d="M207.244,276.615L210.65,276.877L213.4,280.806C213.4,280.806 225.276,279.977 228.289,281.811C231.301,283.644 233.98,288.044 233.98,288.044L230.837,288.175C230.837,288.175 229.598,285.129 226.629,284.081C223.661,283.033 212.09,286.308 212.09,286.308L209.471,282.64L207.113,285.129C207.113,285.129 193.163,283.114 191.002,284.081C188.841,285.048 186.963,289.556 186.963,289.556L184.736,289.163C184.736,289.163 187.378,282.466 190.216,281.068C193.054,279.671 204.755,281.33 204.755,281.33L207.244,276.615Z" style="fill:rgb(35,31,32);fill-rule:nonzero;"/>
                        </g>
                    </g>
                </g>
            </g>
            <g transform="matrix(0.544463,0,0,0.544463,450.505,1609.74)">
                <clipPath id="_clip5">
                    <rect x="228.201" y="291.416" width="75.597" height="18.755"/>
                </clipPath>
                <g clip-path="url(#_clip5)">
                    <g opacity="0.300003">
                        <path d="M262.911,292.071L267.888,291.416L271.294,297.179C274.056,297.108 276.818,297.037 279.58,296.965C284.23,296.845 289.315,296.499 293.864,298.032C299.618,299.97 302.056,304.698 303.798,310.171C303.798,310.171 299.744,309.656 299.738,309.648C298.672,308.111 296.452,305.287 295.786,304.756C293.849,303.211 291.418,302.696 288.942,302.273C286.026,301.775 283.41,302.653 280.554,303.079C277.067,303.599 273.733,304.518 270.246,305.038L266.055,299.013L261.47,304.121C257.925,303.746 254.379,303.37 250.834,302.994C247.632,302.655 243.731,301.783 240.426,302.419C236.572,303.16 233.091,306.086 232.052,308.766C232.052,308.766 228.206,308.532 228.201,308.531C230.646,304.165 235.251,300.167 235.71,299.974C239.028,298.576 242.524,297.328 249.906,297.614C252.931,297.731 255.956,297.848 258.982,297.965L262.911,292.071Z" style="fill:rgb(35,31,32);fill-rule:nonzero;"/>
                    </g>
                </g>
            </g>
            <g transform="matrix(0.544463,0,0,0.544463,450.505,1609.74)">
                <path d="M207.244,274.519L210.65,274.781L213.4,278.71C213.4,278.71 225.276,277.881 228.289,279.715C231.301,281.548 233.98,285.948 233.98,285.948L230.837,286.079C230.837,286.079 229.598,283.033 226.629,281.985C223.661,280.937 212.09,284.212 212.09,284.212L209.471,280.544L207.113,283.033C207.113,283.033 193.163,281.018 191.002,281.985C188.841,282.952 186.963,287.46 186.963,287.46L184.736,287.067C184.736,287.067 187.378,280.37 190.216,278.972C193.054,277.575 204.755,279.234 204.755,279.234L207.244,274.519Z" style="fill:white;fill-rule:nonzero;"/>
            </g>
            <g transform="matrix(0.544463,0,0,0.544463,450.505,1609.74)">
                <path d="M262.911,289.975L267.888,289.32L271.294,295.083C274.056,295.012 276.818,294.941 279.58,294.869C284.23,294.749 289.315,294.402 293.864,295.936C299.618,297.874 302.056,302.602 303.798,308.075C303.798,308.075 299.744,307.56 299.738,307.552C298.672,306.015 296.452,303.191 295.786,302.66C293.849,301.115 291.418,300.6 288.942,300.177C286.026,299.679 283.41,300.557 280.554,300.983C277.067,301.503 273.733,302.422 270.246,302.942L266.055,296.917L261.47,302.025C257.925,301.65 254.379,301.274 250.834,300.898C247.632,300.559 243.731,299.687 240.426,300.323C236.572,301.064 233.091,303.99 232.052,306.67C232.052,306.67 228.206,306.436 228.201,306.435C230.646,302.069 235.251,298.071 235.71,297.878C239.028,296.48 242.524,295.232 249.906,295.518C252.931,295.635 255.956,295.752 258.982,295.869L262.911,289.975Z" style="fill:white;fill-rule:nonzero;"/>
            </g>
            <g transform="matrix(0.544463,0,0,0.544463,450.505,1609.74)">
                <path d="M165.591,127.426L163.757,145.764L168.211,147.859L171.092,126.902L165.591,127.426Z" style="fill:rgb(198,168,181);fill-rule:nonzero;"/>
            </g>
            <g transform="matrix(0.544463,0,0,0.544463,450.505,1609.74)">
                <path d="M121.656,127.852C120.446,129.5 120.406,133.073 120.561,134.492C120.677,135.554 120.947,136.703 121.797,137.348C122.676,138.016 123.981,137.919 124.901,137.31C125.822,136.701 126.397,135.675 126.7,134.613C127.203,132.849 127.02,130.899 126.198,129.259C125.782,128.427 125.172,127.647 124.324,127.266C123.091,126.712 122.238,127.059 121.656,127.852M122.209,123.52C123.14,123.188 124.204,123.047 125.403,123.149C126.356,123.229 127.323,123.51 128.048,124.133C128.549,124.564 128.91,125.135 129.215,125.721C131.617,130.34 130.629,136.481 126.899,140.113C126.022,140.967 124.96,141.711 123.745,141.862C121.452,142.149 119.429,140.254 118.373,138.199C115.907,133.398 116.946,125.401 122.209,123.52" style="fill:rgb(198,168,181);fill-rule:nonzero;"/>
            </g>
            <g transform="matrix(0.544463,0,0,0.544463,450.505,1609.74)">
                <path d="M207.9,133.852C205.769,136.387 205.032,140.284 205.434,143.55C205.669,145.465 206.358,147.425 207.832,148.67C210.395,150.833 214.594,149.988 216.867,147.522C219.141,145.057 219.799,141.477 219.646,138.127C219.577,136.595 219.338,135.013 218.495,133.732C217.311,131.931 215.024,131.011 212.879,131.22C210.745,131.427 209.101,132.423 207.9,133.852M210.763,136.578C211.24,136.206 211.841,135.977 212.589,135.947C213.534,135.91 214.487,136.334 215.093,137.061C215.86,137.981 216.031,139.264 215.949,140.459C215.799,142.645 214.817,144.853 213.008,146.088C212.222,146.624 211.074,146.925 210.379,146.277C210.123,146.038 209.975,145.707 209.85,145.38C209.005,143.165 208.537,138.315 210.763,136.578" style="fill:rgb(198,168,181);fill-rule:nonzero;"/>
            </g>
            <g transform="matrix(0.544463,0,0,0.544463,450.505,1609.74)">
                <path d="M259.375,135.023L264.09,136.071L262.257,153.361L258.327,153.361L259.375,135.023Z" style="fill:rgb(198,168,181);fill-rule:nonzero;"/>
            </g>
            <g transform="matrix(0.544463,0,0,0.544463,450.505,1609.74)">
                <path d="M299.822,145.251C299.033,147.738 298.892,150.416 299.488,152.238C300.512,155.366 303.646,157.858 306.924,157.56C309.946,157.286 312.455,154.732 313.251,151.803C314.047,148.874 313.353,145.696 311.958,143.001C310.925,141.005 309.259,139.056 307.022,138.826C303.454,138.46 300.962,141.656 299.822,145.251M305.261,144.364C305.951,143.741 306.811,143.553 307.829,144.238C308.892,144.953 309.303,146.316 309.459,147.588C309.613,148.847 309.579,150.177 309.01,151.31C308.44,152.442 307.229,153.32 305.967,153.188C304.384,153.023 303.311,151.346 303.253,149.755C303.207,148.476 303.908,145.584 305.261,144.364" style="fill:rgb(198,168,181);fill-rule:nonzero;"/>
            </g>
            <g transform="matrix(0.544463,0,0,0.544463,450.505,1609.74)">
                <path d="M346.871,143.144L351.324,143.406L350.278,161.744L345.299,161.482L346.871,143.144Z" style="fill:rgb(198,168,181);fill-rule:nonzero;"/>
            </g>
            <g transform="matrix(0.544463,0,0,0.544463,450.505,1609.74)">
                <path d="M384.933,157.431C385.11,158.826 385.808,160.55 387.136,161.205C391.796,163.502 392.272,155.725 390.938,153.162C390.629,152.568 390.202,151.99 389.582,151.735C386.931,150.642 384.573,154.588 384.933,157.431M384.67,148.011C385.897,147.031 387.401,146.526 389.152,146.797C391.914,147.224 393.639,150.038 394.43,152.718C395.107,155.014 395.381,157.491 394.755,159.802C394.13,162.114 392.499,164.231 390.242,165.032C386.996,166.183 383.165,164.217 381.64,161.129C379.9,157.606 381.137,150.837 384.67,148.011" style="fill:rgb(198,168,181);fill-rule:nonzero;"/>
            </g>
            <g transform="matrix(0.544463,0,0,0.544463,450.505,1609.74)">
                <path d="M176.385,428.692L176.694,434.88L253.7,460.297L339.434,429.311L176.385,428.692Z" style="fill:rgb(179,211,52);fill-rule:nonzero;"/>
            </g>
            <g transform="matrix(0.544463,0,0,0.544463,450.505,1609.74)">
                <path d="M139.187,170.193C139.15,169.827 133.173,167.051 132.582,166.856C126.166,164.746 118.859,165.664 114.397,171.114C109.48,177.119 111.075,186.045 117.49,190.461C120.395,192.461 125.308,193.065 127.391,196.341C128.847,198.631 127.903,201.05 125.6,202.264C122.748,203.767 120.108,202.662 117.431,201.386C115.088,200.269 112.733,199.175 110.384,198.071C110.384,198.071 109.463,206.824 109.462,206.828C109.439,207.13 113.784,209.083 114.266,209.324C119.668,212.033 126.057,212.365 131.829,210.718C136.924,209.265 137.875,203.388 138.384,198.801C138.5,197.638 138.253,196.473 138.008,195.331C136.823,189.826 134.746,189.312 130.227,186.609C128.173,185.381 125.979,184.32 124.185,182.708C122.851,181.509 121.72,179.678 121.831,177.822C122.039,174.348 126.328,173.221 128.654,173.532C130.074,173.721 134.942,176.282 138.085,178.509C138.086,178.503 139.137,170.549 139.187,170.193" style="fill:rgb(137,88,129);fill-rule:nonzero;"/>
            </g>
            <g transform="matrix(0.544463,0,0,0.544463,450.505,1609.74)">
                <path d="M146.992,167.245C146.992,167.245 156.835,169.706 157.441,169.857C157.702,169.922 155.465,183.048 155.311,184.055C154.667,188.278 153.55,192.749 154.238,197.037C154.822,200.682 159.334,207.955 163.158,202.666C166.626,197.87 167.183,189.618 167.891,183.952C167.998,183.097 169.267,170.913 169.521,170.913L178.952,170.913C178.69,175.759 178.386,183.665 178.219,186.676C177.432,200.869 174.141,215.121 156.784,213.8C148.198,213.146 143.673,203.086 144.372,195.537C144.372,195.536 146.992,167.245 146.992,167.245" style="fill:rgb(137,88,129);fill-rule:nonzero;"/>
            </g>
            <g transform="matrix(0.544463,0,0,0.544463,450.505,1609.74)">
                <path d="M182.968,216.843L186.286,170.912L195.193,170.912L205.148,193.965L208.291,173.531L218.246,174.579L214.404,219.463L202.528,218.589L194.145,192.917L192.573,217.542L182.968,216.843Z" style="fill:rgb(137,88,129);fill-rule:nonzero;"/>
            </g>
            <g transform="matrix(0.544463,0,0,0.544463,450.505,1609.74)">
                <path d="M252.81,213.146C252.829,215.507 252.848,217.868 252.867,220.229C252.868,220.427 252.863,220.644 252.734,220.793C252.619,220.927 252.434,220.971 252.261,221.008C247.545,222.021 242.632,222.57 237.91,221.587C230.295,220.001 223.975,213.616 223.353,205.701C222.885,199.734 222.475,193.433 225.111,188.059C228.138,181.884 232.589,179.212 239.204,177.33C244.522,175.817 251.519,177.555 256.494,179.297C256.131,182.116 255.767,184.936 255.404,187.756C250.481,185.074 237.734,182.65 234.418,189.094C232.836,192.167 232.652,196.854 232.549,200.243C232.257,209.838 244.332,215.874 252.81,213.146" style="fill:rgb(137,88,129);fill-rule:nonzero;"/>
            </g>
            <g transform="matrix(0.544463,0,0,0.544463,450.505,1609.74)">
                <path d="M316.221,206.539L321.984,208.635L320.412,195.536L316.221,206.539ZM316.745,183.486L326.176,184.534L335.606,230.116L326.176,230.116L323.556,216.494L314.649,215.97L309.41,229.068L298.931,226.972L316.745,183.486Z" style="fill:rgb(137,88,129);fill-rule:nonzero;"/>
            </g>
            <g transform="matrix(0.544463,0,0,0.544463,450.505,1609.74)">
                <path d="M277.596,216.334C279.716,216.864 281.906,216.733 283.802,215.312C286.588,213.224 287.749,209.361 287.933,206.026C288.195,201.25 286.192,195.81 282.717,192.453C280.863,190.661 278.092,189.578 275.655,190.42C273.454,191.18 272.023,193.269 270.869,195.291C269.306,198.029 267.932,200.968 267.67,204.11C267.319,208.333 269.332,211.75 272.763,214.067C274.195,215.035 275.872,215.903 277.596,216.334M266.658,184.919C268.603,183.292 270.866,182.024 273.428,181.252C278.805,179.63 284.869,180.454 289.619,183.452C301.551,190.983 301.356,208.333 293.105,218.524C289.929,222.446 285.565,225.338 280.505,226.043C265.645,228.113 256.248,212.64 258.623,199.397C259.597,193.97 262.394,188.486 266.658,184.919" style="fill:rgb(137,88,129);fill-rule:nonzero;"/>
            </g>
            <g transform="matrix(0.544463,0,0,0.544463,450.505,1609.74)">
                <path d="M369.339,189.644C369.339,189.644 368.921,198.292 368.92,198.314C366.388,196.847 361.538,195.302 360.101,195.144C357.263,194.831 354.482,194.809 352.59,197.504C351.756,198.692 352.02,200.386 352.829,201.591C354.932,204.72 359.203,205.897 362.303,207.707C369.529,211.926 372.249,220.945 367.137,227.999C363.715,232.722 358.017,231.914 352.859,231.226C351.667,231.067 341.257,229.104 341.317,228.053C341.317,228.053 341.888,220.372 341.895,220.293C344.252,221.34 347.912,222.316 349.23,222.65C352.289,223.427 353.327,223.768 356.434,223.043C357.243,222.854 358.233,222.246 358.918,221.776C360.719,220.54 360.459,218.622 359.396,216.979C358.765,216.003 357.806,215.289 356.817,214.679C354.386,213.181 351.677,212.199 349.141,210.887C343.279,207.852 340.42,202.795 341.992,196.188C343.266,190.833 345.924,186.519 351.73,185.541C354.73,185.036 358.03,185.439 360.906,186.398C361.698,186.662 369.358,189.257 369.339,189.644" style="fill:rgb(137,88,129);fill-rule:nonzero;"/>
            </g>
            <g transform="matrix(0.544463,0,0,0.544463,450.505,1609.74)">
                <path d="M378.612,190.336L378.261,199.622L388.697,199.628L388.014,235.909L397.945,235.233L399.709,199.404L409.189,199.809L410.118,190.294L378.612,190.336Z" style="fill:rgb(137,88,129);fill-rule:nonzero;"/>
            </g>
            <g transform="matrix(0.544463,0,0,0.544463,450.505,1609.74)">
                <path d="M112.52,236.74C114.415,236.084 115.698,234.135 115.848,232.136C116.21,227.284 112.815,226.464 109.094,225.401C109.094,225.401 108.226,236.868 108.221,236.927C108.211,237.061 112.235,236.839 112.52,236.74M102.982,240.421C102.982,240.415 105.024,221.535 105.077,221.045C105.082,220.994 111.303,221.364 111.805,221.423C116.055,221.923 120.314,225.298 120.449,229.805C120.652,236.561 117.717,239.403 111.382,240.422C110.758,240.523 102.862,241.541 102.982,240.421" style="fill:rgb(137,88,129);fill-rule:nonzero;"/>
            </g>
            <g transform="matrix(0.544463,0,0,0.544463,450.505,1609.74)">
                <path d="M126.733,222.432L124.637,238.674L125.772,242.167L137.386,243.564L138.259,239.547L129.702,238.849L130.051,234.308L137.561,235.181L138.609,230.815L130.401,229.942L130.401,226.973L138.958,227.322L140.006,223.48L126.733,222.432Z" style="fill:rgb(137,88,129);fill-rule:nonzero;"/>
            </g>
            <g transform="matrix(0.544463,0,0,0.544463,450.505,1609.74)">
                <path d="M143.673,224.178L148.388,224.178L151.707,237.451L156.247,225.401L160.613,225.575L152.405,244.611L148.214,243.913L143.673,224.178Z" style="fill:rgb(137,88,129);fill-rule:nonzero;"/>
            </g>
            <g transform="matrix(0.544463,0,0,0.544463,450.505,1609.74)">
                <path d="M163.408,225.75L162.011,242.341L161.662,245.31L175.633,246.882L175.808,243.214L166.552,241.468L167.25,237.626L175.458,237.975L175.284,234.482L168.123,233.609L168.123,229.418L176.681,230.465L177.205,227.496L163.408,225.75Z" style="fill:rgb(137,88,129);fill-rule:nonzero;"/>
            </g>
            <g transform="matrix(0.544463,0,0,0.544463,450.505,1609.74)">
                <path d="M181.047,227.147L185.413,228.02L184.191,242.865L192.748,244.262L192.399,247.93L181.92,246.707L179.475,244.437L181.047,227.147Z" style="fill:rgb(137,88,129);fill-rule:nonzero;"/>
            </g>
            <g transform="matrix(0.544463,0,0,0.544463,450.505,1609.74)">
                <path d="M201.361,235.245C200.588,235.969 200.002,236.914 199.714,237.98C198.642,241.944 202.159,246.79 206.332,245.782C208.966,245.147 211.298,243.013 211.736,240.34C212.378,236.426 209.253,234.502 205.959,233.856C204.245,233.521 202.573,234.111 201.361,235.245M198.91,232.283C201.032,230.327 203.075,228.599 206.153,229.416C210.863,230.667 215.409,232.353 216.087,237.895C216.397,240.425 216.175,244.263 214.395,246.225C213.694,246.998 212.752,247.502 211.831,247.991C208.083,249.979 203.15,250.87 199.497,247.915C199.181,247.659 198.943,247.321 198.71,246.987C197.332,245.01 195.954,242.921 195.583,240.539C195.028,236.985 196.625,234.388 198.91,232.283" style="fill:rgb(137,88,129);fill-rule:nonzero;"/>
            </g>
            <g transform="matrix(0.544463,0,0,0.544463,450.505,1609.74)">
                <path d="M225.581,235.006L225.406,239.023C227.847,239.665 230.689,239.678 231.082,237.975C231.475,236.272 229.106,235.142 225.581,235.006M231.075,232.809C233.057,233.734 234.689,235.856 234.75,236.665C235.143,241.904 229.374,243.553 224.882,243.04L223.835,250.549L219.468,249.501C219.468,249.501 221.521,230.985 221.564,230.989C225.188,231.295 227.161,230.982 231.075,232.809" style="fill:rgb(137,88,129);fill-rule:nonzero;"/>
            </g>
            <g transform="matrix(0.544463,0,0,0.544463,450.505,1609.74)">
                <path d="M238.854,232.736L237.108,252.645L240.077,252.82L250.73,253.169L250.73,248.803L242.172,248.279L242.347,244.262L250.73,245.31L251.079,241.119L243.395,240.071L243.22,237.451L252.127,238.15L253,233.435L238.854,232.736Z" style="fill:rgb(137,88,129);fill-rule:nonzero;"/>
            </g>
            <g transform="matrix(0.544463,0,0,0.544463,450.505,1609.74)">
                <path d="M263.305,239.023L263.305,243.563C263.306,244.984 268.802,243.508 268.812,241.747C268.823,239.686 263.3,239.255 263.305,239.023M271.033,236.796C273.329,238.032 273.784,239.678 273.522,242.429C273.474,242.924 272.474,246.751 268.937,247.144C268.938,247.145 273.434,255.265 273.434,255.265L268.37,255.44L264.702,247.93L262.781,247.93L262.606,255.265L258.066,254.392C258.066,254.392 259.505,234.455 259.507,234.439C263.174,234.832 266.722,235.216 267.365,235.355C268.39,235.578 270.198,236.347 271.033,236.796" style="fill:rgb(137,88,129);fill-rule:nonzero;"/>
            </g>
            <g transform="matrix(0.544463,0,0,0.544463,450.505,1609.74)">
                <path d="M293.518,237.626L293.518,241.643C289.912,240.668 284.849,237.975 284.097,241.119C283.345,244.262 292.189,245.222 293.236,250.358C293.923,253.749 291.643,255.727 288.977,255.789C287.983,255.812 281.511,255.265 278.324,253.693C278.321,253.692 278.821,250.216 278.847,250.033C278.828,250.166 282.481,251.779 282.839,251.868C284.716,252.332 288.715,252.645 288.715,250.812C288.715,248.454 282.98,246.14 282.615,245.898C281.639,245.253 280.63,244.573 280.034,243.565C279.053,241.904 279.479,239.661 280.711,238.176C283.887,234.344 289.515,236.774 293.518,237.626" style="fill:rgb(137,88,129);fill-rule:nonzero;"/>
            </g>
            <g transform="matrix(0.544463,0,0,0.544463,450.505,1609.74)">
                <path d="M334.21,240.77C334.21,240.77 333.861,244.958 333.86,244.961C334.053,244.267 327.035,243.517 326.142,243.783C323.395,244.601 320.586,248.227 321.245,251.185C321.645,252.982 323.572,254.765 325.129,255.396C325.464,255.533 329.082,256.008 329.145,255.44L329.495,252.296L324.954,251.598L325.129,248.105L334.385,249.328C334.385,249.328 333.861,258.402 333.861,258.41C333.774,259.055 328.725,259.406 328.146,259.456C325.112,259.72 322.003,258.473 319.966,256.213C317.678,253.674 315.995,248.752 317.432,245.471C318.677,242.631 322.773,239.736 325.773,239.225C326.541,239.094 334.273,240.017 334.21,240.77" style="fill:rgb(137,88,129);fill-rule:nonzero;"/>
            </g>
            <g transform="matrix(0.544463,0,0,0.544463,450.505,1609.74)">
                <path d="M343.815,241.817L348.88,243.04C348.708,245.038 348.537,247.036 348.366,249.034C348.189,251.101 347.778,253.21 348.092,255.286C348.429,257.521 350.812,258.921 352.801,257.557C354.789,256.193 355.16,253.392 355.438,251.192C355.523,250.525 355.935,242.87 355.865,242.865L360.406,243.214C360.155,245.848 359.905,248.481 359.654,251.115C359.353,254.267 359.666,258.38 356.963,260.642C354.449,262.746 350.585,262.914 347.613,261.787C344.966,260.783 343.407,257.303 343.508,254.564C343.57,252.872 343.589,251.176 343.63,249.482C343.692,246.927 343.753,244.372 343.815,241.817" style="fill:rgb(137,88,129);fill-rule:nonzero;"/>
            </g>
            <g transform="matrix(0.544463,0,0,0.544463,450.505,1609.74)">
                <path d="M369.139,243.345L367.567,262.425L372.283,262.774L374.029,244.087L369.139,243.345Z" style="fill:rgb(137,88,129);fill-rule:nonzero;"/>
            </g>
            <g transform="matrix(0.544463,0,0,0.544463,450.505,1609.74)">
                <path d="M382.761,243.564L387.651,244.787L386.079,259.282L394.637,260.854L394.287,264.347L383.46,262.775L381.189,260.504L382.761,243.564Z" style="fill:rgb(137,88,129);fill-rule:nonzero;"/>
            </g>
            <g transform="matrix(0.544463,0,0,0.544463,450.505,1609.74)">
                <path d="M407.211,250.2C407.211,250.2 406.166,261.35 406.164,261.377C406.123,262.018 410.537,261.555 410.973,261.379C413.809,260.235 414.741,256.528 413.768,253.853C412.585,250.603 410.119,250.549 407.211,250.2M414.607,247.145C417.824,249 419.478,252.826 419.029,256.778C418.386,262.44 413.546,266.266 407.948,266.311C407.379,266.315 401.282,265.638 401.273,265.746C401.855,259.05 402.437,252.355 403.02,245.659C403.076,245.088 410.448,245.965 411.133,246.037C412.434,246.174 413.598,246.562 414.607,247.145" style="fill:rgb(137,88,129);fill-rule:nonzero;"/>
            </g>
            <g transform="matrix(0.544463,0,0,0.544463,450.505,1609.74)">
                <path d="M137.091,168.097C137.054,167.731 131.077,164.955 130.486,164.76C124.07,162.65 116.763,163.568 112.301,169.018C107.384,175.023 108.979,183.949 115.394,188.365C118.299,190.365 123.212,190.969 125.295,194.245C126.751,196.535 125.807,198.954 123.504,200.168C120.652,201.671 118.012,200.566 115.335,199.29C112.992,198.173 110.637,197.079 108.288,195.975C108.288,195.975 107.367,204.728 107.366,204.732C107.343,205.034 111.688,206.987 112.169,207.228C117.572,209.937 123.961,210.269 129.733,208.622C134.828,207.169 135.779,201.292 136.288,196.705C136.404,195.542 136.157,194.377 135.912,193.235C134.727,187.73 132.65,187.216 128.131,184.513C126.077,183.285 123.883,182.224 122.089,180.612C120.755,179.413 119.624,177.582 119.735,175.726C119.943,172.252 124.232,171.125 126.558,171.436C127.978,171.625 132.846,174.186 135.989,176.413C135.99,176.407 137.041,168.453 137.091,168.097" style="fill:rgb(247,244,219);fill-rule:nonzero;"/>
            </g>
            <g transform="matrix(0.544463,0,0,0.544463,450.505,1609.74)">
                <path d="M144.896,165.149C144.896,165.149 154.739,167.61 155.345,167.761C155.606,167.826 153.369,180.952 153.215,181.959C152.571,186.182 151.454,190.653 152.142,194.941C152.726,198.586 157.238,205.859 161.062,200.57C164.53,195.774 165.087,187.522 165.795,181.856C165.902,181.001 167.171,168.817 167.425,168.817L176.856,168.817C176.594,173.663 176.29,181.569 176.123,184.58C175.336,198.773 172.045,213.025 154.688,211.704C146.102,211.05 141.577,200.99 142.276,193.441C142.276,193.44 144.896,165.149 144.896,165.149" style="fill:rgb(247,244,219);fill-rule:nonzero;"/>
            </g>
            <g transform="matrix(0.544463,0,0,0.544463,450.505,1609.74)">
                <path d="M180.873,214.748L184.191,168.817L193.098,168.817L203.053,191.87L206.196,171.436L216.151,172.484L212.309,217.368L200.433,216.494L192.05,190.822L190.478,215.447L180.873,214.748Z" style="fill:rgb(247,244,219);fill-rule:nonzero;"/>
            </g>
            <g transform="matrix(0.544463,0,0,0.544463,450.505,1609.74)">
                <path d="M250.714,211.051C250.733,213.412 250.752,215.773 250.77,218.134C250.772,218.332 250.767,218.549 250.638,218.698C250.523,218.832 250.338,218.876 250.165,218.913C245.449,219.926 240.536,220.475 235.814,219.492C228.199,217.906 221.879,211.521 221.257,203.606C220.789,197.639 220.379,191.338 223.015,185.964C226.042,179.789 230.493,177.117 237.108,175.235C242.426,173.722 249.423,175.46 254.398,177.202C254.035,180.021 253.671,182.841 253.308,185.661C248.385,182.979 235.638,180.555 232.322,186.999C230.74,190.072 230.556,194.759 230.453,198.148C230.161,207.743 242.236,213.779 250.714,211.051" style="fill:rgb(247,244,219);fill-rule:nonzero;"/>
            </g>
            <g transform="matrix(0.544463,0,0,0.544463,450.505,1609.74)">
                <path d="M314.126,204.444L319.889,206.54L318.317,193.441L314.126,204.444ZM314.65,181.391L324.081,182.439L333.511,228.021L324.081,228.021L321.461,214.399L312.554,213.875L307.315,226.973L296.836,224.877L314.65,181.391Z" style="fill:rgb(247,244,219);fill-rule:nonzero;"/>
            </g>
            <g transform="matrix(0.544463,0,0,0.544463,450.505,1609.74)">
                <path d="M275.501,214.238C277.621,214.768 279.811,214.637 281.707,213.216C284.493,211.128 285.654,207.265 285.838,203.93C286.1,199.154 284.097,193.714 280.622,190.357C278.768,188.565 275.997,187.482 273.56,188.324C271.359,189.084 269.928,191.173 268.774,193.195C267.211,195.933 265.837,198.872 265.575,202.014C265.224,206.237 267.237,209.654 270.668,211.971C272.1,212.939 273.777,213.807 275.501,214.238M264.563,182.823C266.508,181.196 268.771,179.928 271.333,179.156C276.71,177.534 282.774,178.358 287.524,181.356C299.456,188.887 299.261,206.237 291.01,216.428C287.835,220.35 283.47,223.242 278.41,223.947C263.55,226.017 254.153,210.544 256.528,197.301C257.502,191.874 260.299,186.39 264.563,182.823" style="fill:rgb(247,244,219);fill-rule:nonzero;"/>
            </g>
            <g transform="matrix(0.544463,0,0,0.544463,450.505,1609.74)">
                <path d="M367.243,187.548C367.243,187.548 366.825,196.196 366.824,196.218C364.292,194.751 359.442,193.206 358.005,193.048C355.167,192.735 352.386,192.713 350.494,195.408C349.66,196.596 349.924,198.29 350.733,199.495C352.836,202.624 357.107,203.801 360.207,205.611C367.433,209.83 370.153,218.849 365.041,225.903C361.619,230.626 355.921,229.818 350.763,229.13C349.571,228.971 339.161,227.008 339.221,225.957C339.221,225.957 339.792,218.276 339.799,218.197C342.156,219.244 345.816,220.22 347.134,220.554C350.193,221.331 351.231,221.672 354.338,220.947C355.147,220.758 356.137,220.15 356.822,219.68C358.623,218.444 358.363,216.526 357.3,214.883C356.669,213.907 355.71,213.193 354.721,212.584C352.29,211.085 349.581,210.103 347.045,208.791C341.183,205.756 338.324,200.699 339.896,194.092C341.17,188.737 343.828,184.423 349.634,183.445C352.634,182.94 355.934,183.343 358.81,184.302C359.602,184.566 367.262,187.161 367.243,187.548" style="fill:rgb(247,244,219);fill-rule:nonzero;"/>
            </g>
            <g transform="matrix(0.544463,0,0,0.544463,450.505,1609.74)">
                <path d="M376.516,188.24L376.165,197.526L386.601,197.532L385.918,233.813L395.849,233.137L397.613,197.308L407.093,197.713L408.022,188.198L376.516,188.24Z" style="fill:rgb(247,244,219);fill-rule:nonzero;"/>
            </g>
            <g transform="matrix(0.544463,0,0,0.544463,450.505,1609.74)">
                <path d="M110.424,234.644C112.319,233.988 113.602,232.039 113.752,230.04C114.114,225.188 110.719,224.368 106.998,223.305C106.998,223.305 106.13,234.772 106.125,234.832C106.115,234.965 110.139,234.743 110.424,234.644M100.886,238.325C100.886,238.319 102.928,219.439 102.981,218.949C102.986,218.898 109.207,219.268 109.709,219.327C113.959,219.827 118.218,223.202 118.353,227.709C118.556,234.465 115.621,237.307 109.286,238.326C108.662,238.427 100.766,239.445 100.886,238.325" style="fill:rgb(247,244,219);fill-rule:nonzero;"/>
            </g>
            <g transform="matrix(0.544463,0,0,0.544463,450.505,1609.74)">
                <path d="M124.637,220.336L122.541,236.578L123.676,240.071L135.29,241.468L136.163,237.451L127.606,236.753L127.955,232.212L135.465,233.085L136.513,228.719L128.305,227.846L128.305,224.877L136.862,225.226L137.91,221.384L124.637,220.336Z" style="fill:rgb(247,244,219);fill-rule:nonzero;"/>
            </g>
            <g transform="matrix(0.544463,0,0,0.544463,450.505,1609.74)">
                <path d="M141.578,222.083L146.293,222.083L149.612,235.356L154.152,223.306L158.518,223.48L150.31,242.516L146.119,241.818L141.578,222.083Z" style="fill:rgb(247,244,219);fill-rule:nonzero;"/>
            </g>
            <g transform="matrix(0.544463,0,0,0.544463,450.505,1609.74)">
                <path d="M161.313,223.654L159.916,240.245L159.567,243.214L173.538,244.786L173.713,241.118L164.457,239.372L165.155,235.53L173.363,235.879L173.189,232.386L166.028,231.513L166.028,227.322L174.586,228.369L175.11,225.4L161.313,223.654Z" style="fill:rgb(247,244,219);fill-rule:nonzero;"/>
            </g>
            <g transform="matrix(0.544463,0,0,0.544463,450.505,1609.74)">
                <path d="M178.952,225.052L183.318,225.925L182.096,240.77L190.653,242.167L190.304,245.835L179.825,244.612L177.38,242.342L178.952,225.052Z" style="fill:rgb(247,244,219);fill-rule:nonzero;"/>
            </g>
            <g transform="matrix(0.544463,0,0,0.544463,450.505,1609.74)">
                <path d="M199.265,233.149C198.492,233.873 197.906,234.817 197.618,235.884C196.546,239.848 200.063,244.694 204.236,243.686C206.87,243.051 209.203,240.917 209.64,238.244C210.282,234.33 207.157,232.406 203.864,231.76C202.149,231.425 200.477,232.015 199.265,233.149M196.814,230.187C198.936,228.231 200.979,226.503 204.057,227.32C208.767,228.571 213.313,230.257 213.991,235.799C214.301,238.329 214.079,242.167 212.299,244.129C211.598,244.902 210.656,245.406 209.735,245.895C205.987,247.883 201.054,248.774 197.401,245.819C197.085,245.563 196.847,245.225 196.614,244.891C195.236,242.914 193.858,240.825 193.487,238.443C192.932,234.889 194.529,232.292 196.814,230.187" style="fill:rgb(247,244,219);fill-rule:nonzero;"/>
            </g>
            <g transform="matrix(0.544463,0,0,0.544463,450.505,1609.74)">
                <path d="M223.486,232.911L223.311,236.928C225.752,237.57 228.594,237.583 228.987,235.88C229.38,234.177 227.011,233.047 223.486,232.911M228.98,230.714C230.962,231.639 232.594,233.761 232.655,234.57C233.048,239.809 227.279,241.458 222.787,240.945L221.74,248.454L217.373,247.406C217.373,247.406 219.426,228.89 219.469,228.894C223.093,229.2 225.065,228.887 228.98,230.714" style="fill:rgb(247,244,219);fill-rule:nonzero;"/>
            </g>
            <g transform="matrix(0.544463,0,0,0.544463,450.505,1609.74)">
                <path d="M236.759,230.64L235.013,250.549L237.982,250.724L248.635,251.073L248.635,246.707L240.077,246.183L240.252,242.166L248.635,243.214L248.984,239.023L241.3,237.975L241.125,235.355L250.032,236.054L250.905,231.339L236.759,230.64Z" style="fill:rgb(247,244,219);fill-rule:nonzero;"/>
            </g>
            <g transform="matrix(0.544463,0,0,0.544463,450.505,1609.74)">
                <path d="M261.209,236.927L261.209,241.467C261.21,242.888 266.706,241.412 266.716,239.651C266.727,237.59 261.204,237.159 261.209,236.927M268.937,234.7C271.233,235.936 271.688,237.582 271.426,240.333C271.378,240.828 270.378,244.655 266.841,245.048C266.842,245.049 271.338,253.169 271.338,253.169L266.274,253.344L262.606,245.834L260.685,245.834L260.51,253.169L255.97,252.296C255.97,252.296 257.409,232.359 257.41,232.343C261.078,232.736 264.626,233.12 265.269,233.259C266.294,233.482 268.102,234.251 268.937,234.7" style="fill:rgb(247,244,219);fill-rule:nonzero;"/>
            </g>
            <g transform="matrix(0.544463,0,0,0.544463,450.505,1609.74)">
                <path d="M291.422,235.53L291.422,239.547C287.816,238.572 282.753,235.879 282.001,239.023C281.249,242.166 290.093,243.126 291.14,248.262C291.827,251.653 289.547,253.631 286.881,253.693C285.887,253.716 279.415,253.169 276.228,251.597C276.225,251.596 276.725,248.12 276.751,247.937C276.732,248.07 280.385,249.683 280.743,249.772C282.62,250.236 286.619,250.549 286.619,248.716C286.619,246.358 280.884,244.044 280.519,243.802C279.543,243.157 278.534,242.477 277.938,241.469C276.957,239.808 277.383,237.565 278.615,236.08C281.791,232.248 287.419,234.678 291.422,235.53" style="fill:rgb(247,244,219);fill-rule:nonzero;"/>
            </g>
            <g transform="matrix(0.544463,0,0,0.544463,450.505,1609.74)">
                <path d="M332.114,238.674C332.114,238.674 331.765,242.862 331.764,242.865C331.957,242.171 324.939,241.421 324.046,241.687C321.299,242.505 318.49,246.131 319.149,249.089C319.549,250.886 321.476,252.669 323.033,253.3C323.369,253.437 326.986,253.912 327.049,253.344L327.399,250.2L322.858,249.502L323.033,246.009L332.289,247.232C332.289,247.232 331.765,256.306 331.765,256.314C331.678,256.959 326.629,257.31 326.05,257.36C323.016,257.624 319.907,256.377 317.87,254.117C315.582,251.578 313.899,246.656 315.336,243.375C316.581,240.535 320.677,237.64 323.677,237.129C324.445,236.998 332.177,237.921 332.114,238.674" style="fill:rgb(247,244,219);fill-rule:nonzero;"/>
            </g>
            <g transform="matrix(0.544463,0,0,0.544463,450.505,1609.74)">
                <path d="M341.72,239.722L346.785,240.945C346.612,242.943 346.441,244.941 346.27,246.939C346.094,249.006 345.683,251.115 345.996,253.191C346.333,255.426 348.717,256.826 350.706,255.462C352.694,254.098 353.065,251.297 353.343,249.097C353.428,248.43 353.84,240.775 353.77,240.77C353.77,240.77 358.311,241.119 358.311,241.119C358.059,243.753 357.809,246.386 357.559,249.02C357.258,252.172 357.571,256.285 354.868,258.547C352.354,260.651 348.489,260.819 345.518,259.692C342.871,258.688 341.311,255.207 341.412,252.469C341.475,250.777 341.494,249.081 341.535,247.387C341.597,244.832 341.657,242.277 341.72,239.722" style="fill:rgb(247,244,219);fill-rule:nonzero;"/>
            </g>
            <g transform="matrix(0.544463,0,0,0.544463,450.505,1609.74)">
                <path d="M367.043,241.25L365.471,260.33L370.187,260.679L371.933,241.992L367.043,241.25Z" style="fill:rgb(247,244,219);fill-rule:nonzero;"/>
            </g>
            <g transform="matrix(0.544463,0,0,0.544463,450.505,1609.74)">
                <path d="M380.665,241.468L385.555,242.691L383.983,257.186L392.541,258.758L392.191,262.251L381.364,260.679L379.093,258.408L380.665,241.468Z" style="fill:rgb(247,244,219);fill-rule:nonzero;"/>
            </g>
            <g transform="matrix(0.544463,0,0,0.544463,450.505,1609.74)">
                <path d="M405.115,248.105C405.115,248.105 404.07,259.255 404.068,259.282C404.027,259.923 408.441,259.46 408.877,259.284C411.713,258.14 412.645,254.433 411.672,251.758C410.489,248.508 408.023,248.454 405.115,248.105M412.512,245.05C415.728,246.905 417.382,250.731 416.933,254.683C416.29,260.345 411.45,264.171 405.852,264.216C405.283,264.22 399.186,263.543 399.177,263.651C399.759,256.955 400.341,250.26 400.924,243.564C400.98,242.993 408.352,243.87 409.037,243.942C410.338,244.079 411.502,244.467 412.512,245.05" style="fill:rgb(247,244,219);fill-rule:nonzero;"/>
            </g>
            <g transform="matrix(0.544463,0,0,0.544463,450.505,1609.74)">
                <path d="M74.002,333.89L434.321,335.62L432.535,328.965L69.726,328.379L63.438,371.606L68.926,371.578L74.002,333.89Z" style="fill:rgb(224,140,38);fill-rule:nonzero;"/>
            </g>
            <g transform="matrix(0.544463,0,0,0.544463,450.505,1609.74)">
                <path d="M62.007,383.068L61.607,391.065L56.701,389.74L57.4,378.563L446.506,377.865L448.638,384.267L62.007,383.068Z" style="fill:rgb(229,212,27);fill-rule:nonzero;"/>
            </g>
            <g transform="matrix(0.544463,0,0,0.544463,450.505,1609.74)">
                <path d="M181.047,432.004L181.047,436.195L176.694,434.879L176.384,428.692L339.433,429.31L331.066,432.528L181.047,432.004Z" style="fill:rgb(164,191,57);fill-rule:nonzero;"/>
            </g>
        </g>
    </g>
</svg>
